<svg xmlns="http://www.w3.org/2000/svg" viewBox="0 0 500 180" width="500" height="180">
  <defs>
    <linearGradient id="bg" x1="0" y1="0" x2="1" y2="1">
      <stop offset="0%" stop-color="rgb(11,26,49)"/>
      <stop offset="50%" stop-color="rgb(17,39,73)"/>
      <stop offset="100%" stop-color="rgb(7,15,29)"/>
    </linearGradient>
    <radialGradient id="glow" cx="50%" cy="50%" r="45%">
      <stop offset="0%" stop-color="#3B82F6" stop-opacity="0.25"/>
      <stop offset="100%" stop-color="#3B82F6" stop-opacity="0"/>
    </radialGradient>
    <filter id="textGlow">
      <feGaussianBlur stdDeviation="3" result="blur"/>
      <feMerge><feMergeNode in="blur"/><feMergeNode in="SourceGraphic"/></feMerge>
    </filter>
  </defs>
  <rect width="500" height="180" fill="url(#bg)"/>
  <rect width="500" height="180" fill="url(#glow)"/>
  <!-- Stars -->
  <circle cx="143" cy="165" r="1.5" fill="white" opacity="0.38"/>
  <circle cx="304" cy="95" r="0.6" fill="white" opacity="0.35"/>
  <circle cx="30" cy="20" r="1.0" fill="white" opacity="0.55"/>
  <circle cx="258" cy="54" r="1.8" fill="white" opacity="0.34"/>
  <circle cx="51" cy="137" r="1.7" fill="white" opacity="0.47"/>
  <circle cx="221" cy="130" r="1.1" fill="white" opacity="0.41"/>
  <circle cx="430" cy="29" r="1.6" fill="white" opacity="0.41"/>
  <circle cx="286" cy="86" r="1.5" fill="white" opacity="0.35"/>
  <circle cx="367" cy="109" r="1.5" fill="white" opacity="0.27"/>
  <circle cx="371" cy="66" r="1.3" fill="white" opacity="0.46"/>
  <circle cx="41" cy="56" r="0.6" fill="white" opacity="0.63"/>
  <circle cx="382" cy="117" r="2.0" fill="white" opacity="0.21"/>
  <circle cx="62" cy="43" r="0.7" fill="white" opacity="0.67"/>
  <circle cx="118" cy="118" r="1.8" fill="white" opacity="0.50"/>
  <circle cx="220" cy="129" r="2.0" fill="white" opacity="0.36"/>
  <circle cx="82" cy="144" r="1.1" fill="white" opacity="0.28"/>
  <circle cx="444" cy="84" r="1.2" fill="white" opacity="0.36"/>
  <circle cx="82" cy="142" r="1.8" fill="white" opacity="0.61"/>
  <circle cx="485" cy="79" r="0.6" fill="white" opacity="0.64"/>
  <circle cx="398" cy="101" r="0.7" fill="white" opacity="0.49"/>
  <circle cx="328" cy="103" r="1.8" fill="white" opacity="0.31"/>
  <circle cx="462" cy="12" r="1.3" fill="white" opacity="0.47"/>
  <circle cx="288" cy="144" r="1.9" fill="white" opacity="0.36"/>
  <circle cx="283" cy="131" r="1.9" fill="white" opacity="0.64"/>
  <circle cx="11" cy="15" r="0.8" fill="white" opacity="0.48"/>
  <!-- Icon -->
  <text x="250" y="58" text-anchor="middle" font-size="48" fill="white" opacity="0.9">🐠</text>
  <!-- Title -->
  <text x="250" y="105" text-anchor="middle" font-family="monospace" font-weight="bold" font-size="26" fill="#3B82F6" filter="url(#textGlow)">AQUARIUM</text>
  <!-- Subtitle -->
  <text x="250" y="130" text-anchor="middle" font-family="monospace" font-size="10" fill="white" opacity="0.4">YOUR WORLD ARCADE</text>
  <!-- Accent line -->
  <rect x="170" y="142" width="160" height="1.5" rx="1" fill="#3B82F6" opacity="0.3"/>
</svg>