<svg xmlns="http://www.w3.org/2000/svg" viewBox="0 0 500 180" width="500" height="180">
  <defs>
    <linearGradient id="bg" x1="0" y1="0" x2="1" y2="1">
      <stop offset="0%" stop-color="rgb(11,26,49)"/>
      <stop offset="50%" stop-color="rgb(17,39,73)"/>
      <stop offset="100%" stop-color="rgb(7,15,29)"/>
    </linearGradient>
    <radialGradient id="glow" cx="50%" cy="50%" r="45%">
      <stop offset="0%" stop-color="#3B82F6" stop-opacity="0.25"/>
      <stop offset="100%" stop-color="#3B82F6" stop-opacity="0"/>
    </radialGradient>
    <filter id="textGlow">
      <feGaussianBlur stdDeviation="3" result="blur"/>
      <feMerge><feMergeNode in="blur"/><feMergeNode in="SourceGraphic"/></feMerge>
    </filter>
  </defs>
  <rect width="500" height="180" fill="url(#bg)"/>
  <rect width="500" height="180" fill="url(#glow)"/>
  <!-- Stars -->
  <circle cx="181" cy="144" r="1.4" fill="white" opacity="0.47"/>
  <circle cx="461" cy="52" r="0.8" fill="white" opacity="0.61"/>
  <circle cx="382" cy="80" r="1.3" fill="white" opacity="0.30"/>
  <circle cx="106" cy="111" r="1.7" fill="white" opacity="0.64"/>
  <circle cx="32" cy="12" r="1.8" fill="white" opacity="0.52"/>
  <circle cx="306" cy="87" r="0.9" fill="white" opacity="0.26"/>
  <circle cx="142" cy="79" r="1.5" fill="white" opacity="0.45"/>
  <circle cx="437" cy="66" r="1.6" fill="white" opacity="0.28"/>
  <circle cx="63" cy="61" r="1.2" fill="white" opacity="0.53"/>
  <circle cx="313" cy="57" r="0.8" fill="white" opacity="0.40"/>
  <circle cx="375" cy="33" r="1.0" fill="white" opacity="0.61"/>
  <circle cx="113" cy="31" r="0.5" fill="white" opacity="0.65"/>
  <circle cx="81" cy="128" r="1.6" fill="white" opacity="0.62"/>
  <circle cx="406" cy="54" r="0.9" fill="white" opacity="0.69"/>
  <circle cx="287" cy="125" r="1.9" fill="white" opacity="0.21"/>
  <circle cx="86" cy="12" r="1.9" fill="white" opacity="0.27"/>
  <circle cx="31" cy="42" r="1.0" fill="white" opacity="0.29"/>
  <circle cx="73" cy="105" r="0.9" fill="white" opacity="0.49"/>
  <circle cx="238" cy="88" r="0.9" fill="white" opacity="0.49"/>
  <circle cx="117" cy="67" r="0.9" fill="white" opacity="0.26"/>
  <circle cx="183" cy="63" r="1.9" fill="white" opacity="0.35"/>
  <circle cx="22" cy="152" r="2.0" fill="white" opacity="0.48"/>
  <circle cx="280" cy="104" r="0.7" fill="white" opacity="0.43"/>
  <circle cx="222" cy="100" r="1.0" fill="white" opacity="0.41"/>
  <circle cx="42" cy="44" r="1.1" fill="white" opacity="0.22"/>
  <!-- Icon -->
  <text x="250" y="58" text-anchor="middle" font-size="48" fill="white" opacity="0.9">🎯</text>
  <!-- Title -->
  <text x="250" y="105" text-anchor="middle" font-family="monospace" font-weight="bold" font-size="26" fill="#3B82F6" filter="url(#textGlow)">BLOCK SHOOTER</text>
  <!-- Subtitle -->
  <text x="250" y="130" text-anchor="middle" font-family="monospace" font-size="10" fill="white" opacity="0.4">YOUR WORLD ARCADE</text>
  <!-- Accent line -->
  <rect x="170" y="142" width="160" height="1.5" rx="1" fill="#3B82F6" opacity="0.3"/>
</svg>