<svg xmlns="http://www.w3.org/2000/svg" viewBox="0 0 500 180" width="500" height="180">
  <defs>
    <linearGradient id="bg" x1="0" y1="0" x2="1" y2="1">
      <stop offset="0%" stop-color="rgb(49,31,2)"/>
      <stop offset="50%" stop-color="rgb(73,47,3)"/>
      <stop offset="100%" stop-color="rgb(29,18,1)"/>
    </linearGradient>
    <radialGradient id="glow" cx="50%" cy="50%" r="45%">
      <stop offset="0%" stop-color="#F59E0B" stop-opacity="0.25"/>
      <stop offset="100%" stop-color="#F59E0B" stop-opacity="0"/>
    </radialGradient>
    <filter id="textGlow">
      <feGaussianBlur stdDeviation="3" result="blur"/>
      <feMerge><feMergeNode in="blur"/><feMergeNode in="SourceGraphic"/></feMerge>
    </filter>
  </defs>
  <rect width="500" height="180" fill="url(#bg)"/>
  <rect width="500" height="180" fill="url(#glow)"/>
  <!-- Stars -->
  <circle cx="378" cy="32" r="1.1" fill="white" opacity="0.34"/>
  <circle cx="453" cy="147" r="0.8" fill="white" opacity="0.69"/>
  <circle cx="88" cy="69" r="1.7" fill="white" opacity="0.68"/>
  <circle cx="269" cy="34" r="0.9" fill="white" opacity="0.41"/>
  <circle cx="358" cy="59" r="1.6" fill="white" opacity="0.31"/>
  <circle cx="341" cy="107" r="1.3" fill="white" opacity="0.60"/>
  <circle cx="398" cy="88" r="0.8" fill="white" opacity="0.29"/>
  <circle cx="328" cy="91" r="0.6" fill="white" opacity="0.40"/>
  <circle cx="453" cy="148" r="0.8" fill="white" opacity="0.63"/>
  <circle cx="307" cy="20" r="1.4" fill="white" opacity="0.65"/>
  <circle cx="239" cy="94" r="1.8" fill="white" opacity="0.52"/>
  <circle cx="156" cy="10" r="1.3" fill="white" opacity="0.53"/>
  <circle cx="200" cy="120" r="1.6" fill="white" opacity="0.35"/>
  <circle cx="85" cy="156" r="1.8" fill="white" opacity="0.45"/>
  <circle cx="198" cy="66" r="0.7" fill="white" opacity="0.29"/>
  <circle cx="457" cy="100" r="1.7" fill="white" opacity="0.45"/>
  <circle cx="309" cy="80" r="1.8" fill="white" opacity="0.59"/>
  <circle cx="363" cy="133" r="1.0" fill="white" opacity="0.39"/>
  <circle cx="282" cy="44" r="1.5" fill="white" opacity="0.59"/>
  <circle cx="124" cy="152" r="1.3" fill="white" opacity="0.24"/>
  <circle cx="87" cy="146" r="0.9" fill="white" opacity="0.35"/>
  <circle cx="469" cy="23" r="0.8" fill="white" opacity="0.31"/>
  <circle cx="22" cy="158" r="1.7" fill="white" opacity="0.58"/>
  <circle cx="245" cy="85" r="2.0" fill="white" opacity="0.39"/>
  <circle cx="187" cy="159" r="1.8" fill="white" opacity="0.51"/>
  <!-- Icon -->
  <text x="250" y="58" text-anchor="middle" font-size="48" fill="white" opacity="0.9">💣</text>
  <!-- Title -->
  <text x="250" y="105" text-anchor="middle" font-family="monospace" font-weight="bold" font-size="26" fill="#F59E0B" filter="url(#textGlow)">BOMBERMAN</text>
  <!-- Subtitle -->
  <text x="250" y="130" text-anchor="middle" font-family="monospace" font-size="10" fill="white" opacity="0.4">YOUR WORLD ARCADE</text>
  <!-- Accent line -->
  <rect x="170" y="142" width="160" height="1.5" rx="1" fill="#F59E0B" opacity="0.3"/>
</svg>