<svg xmlns="http://www.w3.org/2000/svg" viewBox="0 0 500 180" width="500" height="180">
  <defs>
    <linearGradient id="bg" x1="0" y1="0" x2="1" y2="1">
      <stop offset="0%" stop-color="rgb(11,26,49)"/>
      <stop offset="50%" stop-color="rgb(17,39,73)"/>
      <stop offset="100%" stop-color="rgb(7,15,29)"/>
    </linearGradient>
    <radialGradient id="glow" cx="50%" cy="50%" r="45%">
      <stop offset="0%" stop-color="#3B82F6" stop-opacity="0.25"/>
      <stop offset="100%" stop-color="#3B82F6" stop-opacity="0"/>
    </radialGradient>
    <filter id="textGlow">
      <feGaussianBlur stdDeviation="3" result="blur"/>
      <feMerge><feMergeNode in="blur"/><feMergeNode in="SourceGraphic"/></feMerge>
    </filter>
  </defs>
  <rect width="500" height="180" fill="url(#bg)"/>
  <rect width="500" height="180" fill="url(#glow)"/>
  <!-- Stars -->
  <circle cx="484" cy="15" r="2.0" fill="white" opacity="0.51"/>
  <circle cx="224" cy="16" r="1.3" fill="white" opacity="0.65"/>
  <circle cx="109" cy="52" r="0.5" fill="white" opacity="0.69"/>
  <circle cx="474" cy="156" r="1.6" fill="white" opacity="0.37"/>
  <circle cx="342" cy="86" r="1.5" fill="white" opacity="0.61"/>
  <circle cx="10" cy="106" r="1.8" fill="white" opacity="0.65"/>
  <circle cx="403" cy="37" r="1.4" fill="white" opacity="0.61"/>
  <circle cx="108" cy="41" r="1.4" fill="white" opacity="0.24"/>
  <circle cx="243" cy="91" r="1.5" fill="white" opacity="0.55"/>
  <circle cx="119" cy="159" r="1.9" fill="white" opacity="0.54"/>
  <circle cx="390" cy="65" r="1.9" fill="white" opacity="0.37"/>
  <circle cx="99" cy="150" r="1.8" fill="white" opacity="0.45"/>
  <circle cx="430" cy="97" r="1.4" fill="white" opacity="0.43"/>
  <circle cx="361" cy="80" r="0.8" fill="white" opacity="0.43"/>
  <circle cx="453" cy="46" r="0.6" fill="white" opacity="0.54"/>
  <circle cx="158" cy="73" r="1.6" fill="white" opacity="0.52"/>
  <circle cx="172" cy="106" r="0.8" fill="white" opacity="0.41"/>
  <circle cx="425" cy="135" r="1.2" fill="white" opacity="0.49"/>
  <circle cx="470" cy="150" r="0.9" fill="white" opacity="0.47"/>
  <circle cx="41" cy="40" r="1.0" fill="white" opacity="0.46"/>
  <circle cx="30" cy="51" r="2.0" fill="white" opacity="0.64"/>
  <circle cx="368" cy="142" r="1.1" fill="white" opacity="0.52"/>
  <circle cx="393" cy="31" r="1.7" fill="white" opacity="0.23"/>
  <circle cx="379" cy="168" r="1.8" fill="white" opacity="0.55"/>
  <circle cx="489" cy="40" r="1.7" fill="white" opacity="0.30"/>
  <!-- Icon -->
  <text x="250" y="58" text-anchor="middle" font-size="48" fill="white" opacity="0.9">🎳</text>
  <!-- Title -->
  <text x="250" y="105" text-anchor="middle" font-family="monospace" font-weight="bold" font-size="26" fill="#3B82F6" filter="url(#textGlow)">BOWLING</text>
  <!-- Subtitle -->
  <text x="250" y="130" text-anchor="middle" font-family="monospace" font-size="10" fill="white" opacity="0.4">YOUR WORLD ARCADE</text>
  <!-- Accent line -->
  <rect x="170" y="142" width="160" height="1.5" rx="1" fill="#3B82F6" opacity="0.3"/>
</svg>