<svg xmlns="http://www.w3.org/2000/svg" viewBox="0 0 500 180" width="500" height="180">
  <defs>
    <linearGradient id="bg" x1="0" y1="0" x2="1" y2="1">
      <stop offset="0%" stop-color="rgb(11,26,49)"/>
      <stop offset="50%" stop-color="rgb(17,39,73)"/>
      <stop offset="100%" stop-color="rgb(7,15,29)"/>
    </linearGradient>
    <radialGradient id="glow" cx="50%" cy="50%" r="45%">
      <stop offset="0%" stop-color="#3B82F6" stop-opacity="0.25"/>
      <stop offset="100%" stop-color="#3B82F6" stop-opacity="0"/>
    </radialGradient>
    <filter id="textGlow">
      <feGaussianBlur stdDeviation="3" result="blur"/>
      <feMerge><feMergeNode in="blur"/><feMergeNode in="SourceGraphic"/></feMerge>
    </filter>
  </defs>
  <rect width="500" height="180" fill="url(#bg)"/>
  <rect width="500" height="180" fill="url(#glow)"/>
  <!-- Stars -->
  <circle cx="180" cy="41" r="0.9" fill="white" opacity="0.24"/>
  <circle cx="89" cy="39" r="0.5" fill="white" opacity="0.43"/>
  <circle cx="195" cy="41" r="1.6" fill="white" opacity="0.68"/>
  <circle cx="348" cy="38" r="1.2" fill="white" opacity="0.31"/>
  <circle cx="219" cy="47" r="1.4" fill="white" opacity="0.49"/>
  <circle cx="398" cy="38" r="1.1" fill="white" opacity="0.47"/>
  <circle cx="15" cy="26" r="0.7" fill="white" opacity="0.70"/>
  <circle cx="263" cy="109" r="0.7" fill="white" opacity="0.24"/>
  <circle cx="304" cy="29" r="1.0" fill="white" opacity="0.45"/>
  <circle cx="264" cy="154" r="0.5" fill="white" opacity="0.20"/>
  <circle cx="115" cy="89" r="0.8" fill="white" opacity="0.26"/>
  <circle cx="263" cy="13" r="1.3" fill="white" opacity="0.41"/>
  <circle cx="340" cy="17" r="1.0" fill="white" opacity="0.29"/>
  <circle cx="44" cy="65" r="1.5" fill="white" opacity="0.25"/>
  <circle cx="216" cy="110" r="1.9" fill="white" opacity="0.53"/>
  <circle cx="47" cy="119" r="0.8" fill="white" opacity="0.51"/>
  <circle cx="454" cy="145" r="1.6" fill="white" opacity="0.29"/>
  <circle cx="122" cy="54" r="0.8" fill="white" opacity="0.39"/>
  <circle cx="294" cy="114" r="1.5" fill="white" opacity="0.32"/>
  <circle cx="373" cy="118" r="0.7" fill="white" opacity="0.47"/>
  <circle cx="194" cy="113" r="1.7" fill="white" opacity="0.55"/>
  <circle cx="291" cy="100" r="1.6" fill="white" opacity="0.59"/>
  <circle cx="221" cy="111" r="1.4" fill="white" opacity="0.33"/>
  <circle cx="199" cy="130" r="1.5" fill="white" opacity="0.66"/>
  <circle cx="299" cy="87" r="1.4" fill="white" opacity="0.54"/>
  <!-- Icon -->
  <text x="250" y="58" text-anchor="middle" font-size="48" fill="white" opacity="0.9">🫧</text>
  <!-- Title -->
  <text x="250" y="105" text-anchor="middle" font-family="monospace" font-weight="bold" font-size="26" fill="#3B82F6" filter="url(#textGlow)">BUBBLE BLASTER</text>
  <!-- Subtitle -->
  <text x="250" y="130" text-anchor="middle" font-family="monospace" font-size="10" fill="white" opacity="0.4">YOUR WORLD ARCADE</text>
  <!-- Accent line -->
  <rect x="170" y="142" width="160" height="1.5" rx="1" fill="#3B82F6" opacity="0.3"/>
</svg>