<svg xmlns="http://www.w3.org/2000/svg" viewBox="0 0 500 180" width="500" height="180">
  <defs>
    <linearGradient id="bg" x1="0" y1="0" x2="1" y2="1">
      <stop offset="0%" stop-color="rgb(6,39,18)"/>
      <stop offset="50%" stop-color="rgb(10,59,28)"/>
      <stop offset="100%" stop-color="rgb(4,23,11)"/>
    </linearGradient>
    <radialGradient id="glow" cx="50%" cy="50%" r="45%">
      <stop offset="0%" stop-color="#22C55E" stop-opacity="0.25"/>
      <stop offset="100%" stop-color="#22C55E" stop-opacity="0"/>
    </radialGradient>
    <filter id="textGlow">
      <feGaussianBlur stdDeviation="3" result="blur"/>
      <feMerge><feMergeNode in="blur"/><feMergeNode in="SourceGraphic"/></feMerge>
    </filter>
  </defs>
  <rect width="500" height="180" fill="url(#bg)"/>
  <rect width="500" height="180" fill="url(#glow)"/>
  <!-- Stars -->
  <circle cx="142" cy="127" r="1.7" fill="white" opacity="0.26"/>
  <circle cx="249" cy="67" r="1.4" fill="white" opacity="0.51"/>
  <circle cx="114" cy="134" r="0.8" fill="white" opacity="0.60"/>
  <circle cx="325" cy="124" r="1.4" fill="white" opacity="0.61"/>
  <circle cx="70" cy="36" r="1.0" fill="white" opacity="0.61"/>
  <circle cx="72" cy="41" r="1.2" fill="white" opacity="0.35"/>
  <circle cx="231" cy="75" r="1.4" fill="white" opacity="0.30"/>
  <circle cx="380" cy="52" r="0.7" fill="white" opacity="0.51"/>
  <circle cx="223" cy="24" r="1.0" fill="white" opacity="0.42"/>
  <circle cx="40" cy="21" r="1.8" fill="white" opacity="0.40"/>
  <circle cx="95" cy="27" r="1.9" fill="white" opacity="0.59"/>
  <circle cx="406" cy="131" r="0.8" fill="white" opacity="0.62"/>
  <circle cx="403" cy="14" r="1.4" fill="white" opacity="0.47"/>
  <circle cx="182" cy="18" r="1.9" fill="white" opacity="0.30"/>
  <circle cx="305" cy="39" r="1.6" fill="white" opacity="0.38"/>
  <circle cx="429" cy="97" r="1.8" fill="white" opacity="0.31"/>
  <circle cx="169" cy="51" r="1.5" fill="white" opacity="0.49"/>
  <circle cx="48" cy="105" r="1.3" fill="white" opacity="0.50"/>
  <circle cx="375" cy="62" r="1.0" fill="white" opacity="0.48"/>
  <circle cx="122" cy="19" r="1.9" fill="white" opacity="0.52"/>
  <circle cx="95" cy="74" r="1.7" fill="white" opacity="0.33"/>
  <circle cx="244" cy="114" r="1.2" fill="white" opacity="0.31"/>
  <circle cx="460" cy="99" r="1.5" fill="white" opacity="0.42"/>
  <circle cx="67" cy="42" r="1.4" fill="white" opacity="0.52"/>
  <circle cx="468" cy="166" r="1.4" fill="white" opacity="0.67"/>
  <!-- Icon -->
  <text x="250" y="58" text-anchor="middle" font-size="48" fill="white" opacity="0.9">💥</text>
  <!-- Title -->
  <text x="250" y="105" text-anchor="middle" font-family="monospace" font-weight="bold" font-size="26" fill="#22C55E" filter="url(#textGlow)">CENTIPEDE STRIKE</text>
  <!-- Subtitle -->
  <text x="250" y="130" text-anchor="middle" font-family="monospace" font-size="10" fill="white" opacity="0.4">YOUR WORLD ARCADE</text>
  <!-- Accent line -->
  <rect x="170" y="142" width="160" height="1.5" rx="1" fill="#22C55E" opacity="0.3"/>
</svg>