<svg xmlns="http://www.w3.org/2000/svg" viewBox="0 0 500 180" width="500" height="180">
  <defs>
    <linearGradient id="bg" x1="0" y1="0" x2="1" y2="1">
      <stop offset="0%" stop-color="rgb(47,13,13)"/>
      <stop offset="50%" stop-color="rgb(71,20,20)"/>
      <stop offset="100%" stop-color="rgb(28,8,8)"/>
    </linearGradient>
    <radialGradient id="glow" cx="50%" cy="50%" r="45%">
      <stop offset="0%" stop-color="#EF4444" stop-opacity="0.25"/>
      <stop offset="100%" stop-color="#EF4444" stop-opacity="0"/>
    </radialGradient>
    <filter id="textGlow">
      <feGaussianBlur stdDeviation="3" result="blur"/>
      <feMerge><feMergeNode in="blur"/><feMergeNode in="SourceGraphic"/></feMerge>
    </filter>
  </defs>
  <rect width="500" height="180" fill="url(#bg)"/>
  <rect width="500" height="180" fill="url(#glow)"/>
  <!-- Stars -->
  <circle cx="71" cy="37" r="1.0" fill="white" opacity="0.47"/>
  <circle cx="56" cy="59" r="1.7" fill="white" opacity="0.59"/>
  <circle cx="48" cy="10" r="1.4" fill="white" opacity="0.29"/>
  <circle cx="421" cy="12" r="1.9" fill="white" opacity="0.41"/>
  <circle cx="229" cy="90" r="1.0" fill="white" opacity="0.62"/>
  <circle cx="240" cy="66" r="1.5" fill="white" opacity="0.23"/>
  <circle cx="326" cy="164" r="0.6" fill="white" opacity="0.50"/>
  <circle cx="408" cy="82" r="0.6" fill="white" opacity="0.22"/>
  <circle cx="347" cy="108" r="1.5" fill="white" opacity="0.24"/>
  <circle cx="183" cy="17" r="1.7" fill="white" opacity="0.51"/>
  <circle cx="321" cy="18" r="1.1" fill="white" opacity="0.68"/>
  <circle cx="114" cy="164" r="0.5" fill="white" opacity="0.41"/>
  <circle cx="199" cy="60" r="1.4" fill="white" opacity="0.56"/>
  <circle cx="428" cy="156" r="0.8" fill="white" opacity="0.32"/>
  <circle cx="212" cy="83" r="1.4" fill="white" opacity="0.65"/>
  <circle cx="210" cy="101" r="1.0" fill="white" opacity="0.68"/>
  <circle cx="67" cy="124" r="0.9" fill="white" opacity="0.64"/>
  <circle cx="456" cy="134" r="1.9" fill="white" opacity="0.22"/>
  <circle cx="432" cy="32" r="2.0" fill="white" opacity="0.61"/>
  <circle cx="330" cy="169" r="1.7" fill="white" opacity="0.28"/>
  <circle cx="14" cy="39" r="0.9" fill="white" opacity="0.61"/>
  <circle cx="375" cy="114" r="1.6" fill="white" opacity="0.27"/>
  <circle cx="472" cy="31" r="1.4" fill="white" opacity="0.32"/>
  <circle cx="437" cy="64" r="0.5" fill="white" opacity="0.20"/>
  <circle cx="411" cy="70" r="1.0" fill="white" opacity="0.22"/>
  <!-- Icon -->
  <text x="250" y="58" text-anchor="middle" font-size="48" fill="white" opacity="0.9">🎢</text>
  <!-- Title -->
  <text x="250" y="105" text-anchor="middle" font-family="monospace" font-weight="bold" font-size="26" fill="#EF4444" filter="url(#textGlow)">COASTER RIDE</text>
  <!-- Subtitle -->
  <text x="250" y="130" text-anchor="middle" font-family="monospace" font-size="10" fill="white" opacity="0.4">YOUR WORLD ARCADE</text>
  <!-- Accent line -->
  <rect x="170" y="142" width="160" height="1.5" rx="1" fill="#EF4444" opacity="0.3"/>
</svg>