<svg xmlns="http://www.w3.org/2000/svg" viewBox="0 0 500 180" width="500" height="180">
  <defs>
    <linearGradient id="bg" x1="0" y1="0" x2="1" y2="1">
      <stop offset="0%" stop-color="rgb(47,13,13)"/>
      <stop offset="50%" stop-color="rgb(71,20,20)"/>
      <stop offset="100%" stop-color="rgb(28,8,8)"/>
    </linearGradient>
    <radialGradient id="glow" cx="50%" cy="50%" r="45%">
      <stop offset="0%" stop-color="#EF4444" stop-opacity="0.25"/>
      <stop offset="100%" stop-color="#EF4444" stop-opacity="0"/>
    </radialGradient>
    <filter id="textGlow">
      <feGaussianBlur stdDeviation="3" result="blur"/>
      <feMerge><feMergeNode in="blur"/><feMergeNode in="SourceGraphic"/></feMerge>
    </filter>
  </defs>
  <rect width="500" height="180" fill="url(#bg)"/>
  <rect width="500" height="180" fill="url(#glow)"/>
  <!-- Stars -->
  <circle cx="28" cy="53" r="0.8" fill="white" opacity="0.44"/>
  <circle cx="221" cy="122" r="0.7" fill="white" opacity="0.45"/>
  <circle cx="71" cy="84" r="0.6" fill="white" opacity="0.62"/>
  <circle cx="76" cy="45" r="1.0" fill="white" opacity="0.28"/>
  <circle cx="215" cy="149" r="0.7" fill="white" opacity="0.40"/>
  <circle cx="227" cy="32" r="1.0" fill="white" opacity="0.48"/>
  <circle cx="423" cy="160" r="1.8" fill="white" opacity="0.23"/>
  <circle cx="396" cy="79" r="1.0" fill="white" opacity="0.46"/>
  <circle cx="267" cy="32" r="1.7" fill="white" opacity="0.47"/>
  <circle cx="432" cy="18" r="1.2" fill="white" opacity="0.66"/>
  <circle cx="288" cy="102" r="1.5" fill="white" opacity="0.41"/>
  <circle cx="342" cy="66" r="1.7" fill="white" opacity="0.25"/>
  <circle cx="262" cy="86" r="1.5" fill="white" opacity="0.47"/>
  <circle cx="221" cy="90" r="1.6" fill="white" opacity="0.58"/>
  <circle cx="64" cy="59" r="1.6" fill="white" opacity="0.41"/>
  <circle cx="410" cy="165" r="1.4" fill="white" opacity="0.61"/>
  <circle cx="54" cy="47" r="2.0" fill="white" opacity="0.21"/>
  <circle cx="460" cy="56" r="0.9" fill="white" opacity="0.43"/>
  <circle cx="59" cy="134" r="1.9" fill="white" opacity="0.55"/>
  <circle cx="220" cy="159" r="0.8" fill="white" opacity="0.20"/>
  <circle cx="160" cy="108" r="1.3" fill="white" opacity="0.62"/>
  <circle cx="214" cy="111" r="1.6" fill="white" opacity="0.32"/>
  <circle cx="430" cy="104" r="0.9" fill="white" opacity="0.51"/>
  <circle cx="393" cy="161" r="1.8" fill="white" opacity="0.64"/>
  <circle cx="56" cy="107" r="1.2" fill="white" opacity="0.55"/>
  <!-- Icon -->
  <text x="250" y="58" text-anchor="middle" font-size="48" fill="white" opacity="0.9">🔴</text>
  <!-- Title -->
  <text x="250" y="105" text-anchor="middle" font-family="monospace" font-weight="bold" font-size="26" fill="#EF4444" filter="url(#textGlow)">CONNECT 4</text>
  <!-- Subtitle -->
  <text x="250" y="130" text-anchor="middle" font-family="monospace" font-size="10" fill="white" opacity="0.4">YOUR WORLD ARCADE</text>
  <!-- Accent line -->
  <rect x="170" y="142" width="160" height="1.5" rx="1" fill="#EF4444" opacity="0.3"/>
</svg>