<svg xmlns="http://www.w3.org/2000/svg" viewBox="0 0 500 180" width="500" height="180">
  <defs>
    <linearGradient id="bg" x1="0" y1="0" x2="1" y2="1">
      <stop offset="0%" stop-color="rgb(47,13,13)"/>
      <stop offset="50%" stop-color="rgb(71,20,20)"/>
      <stop offset="100%" stop-color="rgb(28,8,8)"/>
    </linearGradient>
    <radialGradient id="glow" cx="50%" cy="50%" r="45%">
      <stop offset="0%" stop-color="#EF4444" stop-opacity="0.25"/>
      <stop offset="100%" stop-color="#EF4444" stop-opacity="0"/>
    </radialGradient>
    <filter id="textGlow">
      <feGaussianBlur stdDeviation="3" result="blur"/>
      <feMerge><feMergeNode in="blur"/><feMergeNode in="SourceGraphic"/></feMerge>
    </filter>
  </defs>
  <rect width="500" height="180" fill="url(#bg)"/>
  <rect width="500" height="180" fill="url(#glow)"/>
  <!-- Stars -->
  <circle cx="63" cy="60" r="0.5" fill="white" opacity="0.48"/>
  <circle cx="465" cy="85" r="1.4" fill="white" opacity="0.42"/>
  <circle cx="277" cy="67" r="1.4" fill="white" opacity="0.50"/>
  <circle cx="18" cy="157" r="1.8" fill="white" opacity="0.70"/>
  <circle cx="185" cy="125" r="1.9" fill="white" opacity="0.47"/>
  <circle cx="187" cy="124" r="1.9" fill="white" opacity="0.33"/>
  <circle cx="242" cy="40" r="1.9" fill="white" opacity="0.30"/>
  <circle cx="470" cy="160" r="0.9" fill="white" opacity="0.66"/>
  <circle cx="26" cy="27" r="2.0" fill="white" opacity="0.32"/>
  <circle cx="115" cy="82" r="0.7" fill="white" opacity="0.31"/>
  <circle cx="407" cy="145" r="0.9" fill="white" opacity="0.33"/>
  <circle cx="70" cy="57" r="1.7" fill="white" opacity="0.68"/>
  <circle cx="11" cy="58" r="0.9" fill="white" opacity="0.33"/>
  <circle cx="90" cy="132" r="0.9" fill="white" opacity="0.42"/>
  <circle cx="355" cy="33" r="1.8" fill="white" opacity="0.70"/>
  <circle cx="78" cy="56" r="0.6" fill="white" opacity="0.43"/>
  <circle cx="422" cy="123" r="1.7" fill="white" opacity="0.25"/>
  <circle cx="27" cy="85" r="0.7" fill="white" opacity="0.29"/>
  <circle cx="309" cy="57" r="0.6" fill="white" opacity="0.61"/>
  <circle cx="80" cy="36" r="1.7" fill="white" opacity="0.53"/>
  <circle cx="399" cy="11" r="1.6" fill="white" opacity="0.51"/>
  <circle cx="238" cy="15" r="1.3" fill="white" opacity="0.21"/>
  <circle cx="173" cy="163" r="1.8" fill="white" opacity="0.44"/>
  <circle cx="338" cy="65" r="0.7" fill="white" opacity="0.33"/>
  <circle cx="450" cy="61" r="0.6" fill="white" opacity="0.50"/>
  <!-- Icon -->
  <text x="250" y="58" text-anchor="middle" font-size="48" fill="white" opacity="0.9">🔫</text>
  <!-- Title -->
  <text x="250" y="105" text-anchor="middle" font-family="monospace" font-weight="bold" font-size="26" fill="#EF4444" filter="url(#textGlow)">CONTRA</text>
  <!-- Subtitle -->
  <text x="250" y="130" text-anchor="middle" font-family="monospace" font-size="10" fill="white" opacity="0.4">YOUR WORLD ARCADE</text>
  <!-- Accent line -->
  <rect x="170" y="142" width="160" height="1.5" rx="1" fill="#EF4444" opacity="0.3"/>
</svg>