<svg xmlns="http://www.w3.org/2000/svg" viewBox="0 0 500 180" width="500" height="180">
  <defs>
    <linearGradient id="bg" x1="0" y1="0" x2="1" y2="1">
      <stop offset="0%" stop-color="rgb(49,31,2)"/>
      <stop offset="50%" stop-color="rgb(73,47,3)"/>
      <stop offset="100%" stop-color="rgb(29,18,1)"/>
    </linearGradient>
    <radialGradient id="glow" cx="50%" cy="50%" r="45%">
      <stop offset="0%" stop-color="#F59E0B" stop-opacity="0.25"/>
      <stop offset="100%" stop-color="#F59E0B" stop-opacity="0"/>
    </radialGradient>
    <filter id="textGlow">
      <feGaussianBlur stdDeviation="3" result="blur"/>
      <feMerge><feMergeNode in="blur"/><feMergeNode in="SourceGraphic"/></feMerge>
    </filter>
  </defs>
  <rect width="500" height="180" fill="url(#bg)"/>
  <rect width="500" height="180" fill="url(#glow)"/>
  <!-- Stars -->
  <circle cx="459" cy="46" r="1.1" fill="white" opacity="0.56"/>
  <circle cx="347" cy="137" r="2.0" fill="white" opacity="0.25"/>
  <circle cx="142" cy="67" r="0.9" fill="white" opacity="0.22"/>
  <circle cx="103" cy="112" r="1.9" fill="white" opacity="0.25"/>
  <circle cx="94" cy="162" r="0.5" fill="white" opacity="0.38"/>
  <circle cx="50" cy="88" r="0.7" fill="white" opacity="0.21"/>
  <circle cx="405" cy="146" r="1.7" fill="white" opacity="0.23"/>
  <circle cx="18" cy="66" r="1.1" fill="white" opacity="0.47"/>
  <circle cx="246" cy="71" r="1.2" fill="white" opacity="0.22"/>
  <circle cx="110" cy="100" r="1.3" fill="white" opacity="0.26"/>
  <circle cx="57" cy="27" r="0.6" fill="white" opacity="0.24"/>
  <circle cx="150" cy="119" r="1.3" fill="white" opacity="0.51"/>
  <circle cx="135" cy="119" r="0.8" fill="white" opacity="0.66"/>
  <circle cx="334" cy="49" r="0.7" fill="white" opacity="0.56"/>
  <circle cx="252" cy="118" r="1.6" fill="white" opacity="0.40"/>
  <circle cx="454" cy="59" r="0.9" fill="white" opacity="0.53"/>
  <circle cx="416" cy="52" r="1.8" fill="white" opacity="0.51"/>
  <circle cx="162" cy="162" r="0.7" fill="white" opacity="0.68"/>
  <circle cx="42" cy="27" r="1.9" fill="white" opacity="0.28"/>
  <circle cx="18" cy="159" r="1.3" fill="white" opacity="0.35"/>
  <circle cx="309" cy="150" r="1.6" fill="white" opacity="0.22"/>
  <circle cx="398" cy="166" r="2.0" fill="white" opacity="0.42"/>
  <circle cx="451" cy="106" r="1.6" fill="white" opacity="0.37"/>
  <circle cx="97" cy="52" r="2.0" fill="white" opacity="0.23"/>
  <circle cx="147" cy="82" r="1.9" fill="white" opacity="0.69"/>
  <!-- Icon -->
  <text x="250" y="58" text-anchor="middle" font-size="48" fill="white" opacity="0.9">⛏️</text>
  <!-- Title -->
  <text x="250" y="105" text-anchor="middle" font-family="monospace" font-weight="bold" font-size="26" fill="#F59E0B" filter="url(#textGlow)">DIG DUG</text>
  <!-- Subtitle -->
  <text x="250" y="130" text-anchor="middle" font-family="monospace" font-size="10" fill="white" opacity="0.4">YOUR WORLD ARCADE</text>
  <!-- Accent line -->
  <rect x="170" y="142" width="160" height="1.5" rx="1" fill="#F59E0B" opacity="0.3"/>
</svg>