<svg xmlns="http://www.w3.org/2000/svg" viewBox="0 0 500 180" width="500" height="180">
  <defs>
    <linearGradient id="bg" x1="0" y1="0" x2="1" y2="1">
      <stop offset="0%" stop-color="rgb(49,31,2)"/>
      <stop offset="50%" stop-color="rgb(73,47,3)"/>
      <stop offset="100%" stop-color="rgb(29,18,1)"/>
    </linearGradient>
    <radialGradient id="glow" cx="50%" cy="50%" r="45%">
      <stop offset="0%" stop-color="#F59E0B" stop-opacity="0.25"/>
      <stop offset="100%" stop-color="#F59E0B" stop-opacity="0"/>
    </radialGradient>
    <filter id="textGlow">
      <feGaussianBlur stdDeviation="3" result="blur"/>
      <feMerge><feMergeNode in="blur"/><feMergeNode in="SourceGraphic"/></feMerge>
    </filter>
  </defs>
  <rect width="500" height="180" fill="url(#bg)"/>
  <rect width="500" height="180" fill="url(#glow)"/>
  <!-- Stars -->
  <circle cx="417" cy="163" r="2.0" fill="white" opacity="0.47"/>
  <circle cx="59" cy="121" r="1.6" fill="white" opacity="0.51"/>
  <circle cx="455" cy="63" r="1.7" fill="white" opacity="0.57"/>
  <circle cx="357" cy="124" r="1.1" fill="white" opacity="0.41"/>
  <circle cx="382" cy="128" r="1.0" fill="white" opacity="0.49"/>
  <circle cx="321" cy="151" r="0.6" fill="white" opacity="0.30"/>
  <circle cx="90" cy="161" r="0.8" fill="white" opacity="0.31"/>
  <circle cx="355" cy="85" r="1.6" fill="white" opacity="0.34"/>
  <circle cx="247" cy="163" r="1.7" fill="white" opacity="0.52"/>
  <circle cx="466" cy="155" r="1.0" fill="white" opacity="0.24"/>
  <circle cx="408" cy="134" r="1.1" fill="white" opacity="0.48"/>
  <circle cx="84" cy="29" r="1.4" fill="white" opacity="0.39"/>
  <circle cx="106" cy="115" r="1.8" fill="white" opacity="0.49"/>
  <circle cx="154" cy="20" r="0.6" fill="white" opacity="0.41"/>
  <circle cx="27" cy="80" r="1.1" fill="white" opacity="0.44"/>
  <circle cx="445" cy="168" r="1.3" fill="white" opacity="0.53"/>
  <circle cx="413" cy="32" r="1.5" fill="white" opacity="0.31"/>
  <circle cx="214" cy="91" r="0.7" fill="white" opacity="0.66"/>
  <circle cx="317" cy="80" r="0.8" fill="white" opacity="0.24"/>
  <circle cx="85" cy="119" r="2.0" fill="white" opacity="0.30"/>
  <circle cx="27" cy="129" r="0.6" fill="white" opacity="0.57"/>
  <circle cx="255" cy="95" r="1.4" fill="white" opacity="0.50"/>
  <circle cx="61" cy="169" r="0.5" fill="white" opacity="0.55"/>
  <circle cx="449" cy="166" r="0.8" fill="white" opacity="0.44"/>
  <circle cx="13" cy="137" r="1.5" fill="white" opacity="0.63"/>
  <!-- Icon -->
  <text x="250" y="58" text-anchor="middle" font-size="48" fill="white" opacity="0.9">🦍</text>
  <!-- Title -->
  <text x="250" y="105" text-anchor="middle" font-family="monospace" font-weight="bold" font-size="26" fill="#F59E0B" filter="url(#textGlow)">DONKEY KONG</text>
  <!-- Subtitle -->
  <text x="250" y="130" text-anchor="middle" font-family="monospace" font-size="10" fill="white" opacity="0.4">YOUR WORLD ARCADE</text>
  <!-- Accent line -->
  <rect x="170" y="142" width="160" height="1.5" rx="1" fill="#F59E0B" opacity="0.3"/>
</svg>