<svg xmlns="http://www.w3.org/2000/svg" viewBox="0 0 500 180" width="500" height="180">
  <defs>
    <linearGradient id="bg" x1="0" y1="0" x2="1" y2="1">
      <stop offset="0%" stop-color="rgb(11,26,49)"/>
      <stop offset="50%" stop-color="rgb(17,39,73)"/>
      <stop offset="100%" stop-color="rgb(7,15,29)"/>
    </linearGradient>
    <radialGradient id="glow" cx="50%" cy="50%" r="45%">
      <stop offset="0%" stop-color="#3B82F6" stop-opacity="0.25"/>
      <stop offset="100%" stop-color="#3B82F6" stop-opacity="0"/>
    </radialGradient>
    <filter id="textGlow">
      <feGaussianBlur stdDeviation="3" result="blur"/>
      <feMerge><feMergeNode in="blur"/><feMergeNode in="SourceGraphic"/></feMerge>
    </filter>
  </defs>
  <rect width="500" height="180" fill="url(#bg)"/>
  <rect width="500" height="180" fill="url(#glow)"/>
  <!-- Stars -->
  <circle cx="28" cy="73" r="1.5" fill="white" opacity="0.39"/>
  <circle cx="95" cy="65" r="1.6" fill="white" opacity="0.50"/>
  <circle cx="344" cy="33" r="1.8" fill="white" opacity="0.34"/>
  <circle cx="109" cy="34" r="1.7" fill="white" opacity="0.50"/>
  <circle cx="14" cy="106" r="1.9" fill="white" opacity="0.59"/>
  <circle cx="159" cy="12" r="1.0" fill="white" opacity="0.42"/>
  <circle cx="300" cy="91" r="1.2" fill="white" opacity="0.46"/>
  <circle cx="487" cy="157" r="0.7" fill="white" opacity="0.27"/>
  <circle cx="233" cy="162" r="0.8" fill="white" opacity="0.45"/>
  <circle cx="427" cy="38" r="1.0" fill="white" opacity="0.63"/>
  <circle cx="256" cy="79" r="1.5" fill="white" opacity="0.26"/>
  <circle cx="82" cy="164" r="2.0" fill="white" opacity="0.28"/>
  <circle cx="132" cy="66" r="1.2" fill="white" opacity="0.28"/>
  <circle cx="161" cy="165" r="1.5" fill="white" opacity="0.60"/>
  <circle cx="379" cy="61" r="1.0" fill="white" opacity="0.47"/>
  <circle cx="396" cy="38" r="1.1" fill="white" opacity="0.24"/>
  <circle cx="44" cy="106" r="0.7" fill="white" opacity="0.34"/>
  <circle cx="349" cy="169" r="0.7" fill="white" opacity="0.48"/>
  <circle cx="410" cy="115" r="1.9" fill="white" opacity="0.45"/>
  <circle cx="373" cy="69" r="1.3" fill="white" opacity="0.40"/>
  <circle cx="62" cy="132" r="1.6" fill="white" opacity="0.37"/>
  <circle cx="183" cy="121" r="1.5" fill="white" opacity="0.56"/>
  <circle cx="204" cy="28" r="0.8" fill="white" opacity="0.29"/>
  <circle cx="279" cy="65" r="1.0" fill="white" opacity="0.54"/>
  <circle cx="291" cy="105" r="0.8" fill="white" opacity="0.25"/>
  <!-- Icon -->
  <text x="250" y="58" text-anchor="middle" font-size="48" fill="white" opacity="0.9">🐟</text>
  <!-- Title -->
  <text x="250" y="105" text-anchor="middle" font-family="monospace" font-weight="bold" font-size="26" fill="#3B82F6" filter="url(#textGlow)">FISHING</text>
  <!-- Subtitle -->
  <text x="250" y="130" text-anchor="middle" font-family="monospace" font-size="10" fill="white" opacity="0.4">YOUR WORLD ARCADE</text>
  <!-- Accent line -->
  <rect x="170" y="142" width="160" height="1.5" rx="1" fill="#3B82F6" opacity="0.3"/>
</svg>