<svg xmlns="http://www.w3.org/2000/svg" viewBox="0 0 500 180" width="500" height="180">
  <defs>
    <linearGradient id="bg" x1="0" y1="0" x2="1" y2="1">
      <stop offset="0%" stop-color="rgb(39,36,50)"/>
      <stop offset="50%" stop-color="rgb(58,54,75)"/>
      <stop offset="100%" stop-color="rgb(23,21,30)"/>
    </linearGradient>
    <radialGradient id="glow" cx="50%" cy="50%" r="45%">
      <stop offset="0%" stop-color="#C4B5FD" stop-opacity="0.25"/>
      <stop offset="100%" stop-color="#C4B5FD" stop-opacity="0"/>
    </radialGradient>
    <filter id="textGlow">
      <feGaussianBlur stdDeviation="3" result="blur"/>
      <feMerge><feMergeNode in="blur"/><feMergeNode in="SourceGraphic"/></feMerge>
    </filter>
  </defs>
  <rect width="500" height="180" fill="url(#bg)"/>
  <rect width="500" height="180" fill="url(#glow)"/>
  <!-- Stars -->
  <circle cx="462" cy="48" r="1.7" fill="white" opacity="0.68"/>
  <circle cx="174" cy="28" r="0.6" fill="white" opacity="0.26"/>
  <circle cx="322" cy="104" r="1.9" fill="white" opacity="0.56"/>
  <circle cx="291" cy="157" r="1.4" fill="white" opacity="0.44"/>
  <circle cx="337" cy="66" r="0.8" fill="white" opacity="0.44"/>
  <circle cx="297" cy="115" r="1.4" fill="white" opacity="0.66"/>
  <circle cx="67" cy="42" r="1.1" fill="white" opacity="0.29"/>
  <circle cx="275" cy="168" r="1.7" fill="white" opacity="0.35"/>
  <circle cx="47" cy="120" r="1.7" fill="white" opacity="0.26"/>
  <circle cx="115" cy="32" r="0.6" fill="white" opacity="0.46"/>
  <circle cx="34" cy="123" r="1.8" fill="white" opacity="0.67"/>
  <circle cx="368" cy="64" r="0.7" fill="white" opacity="0.67"/>
  <circle cx="238" cy="57" r="1.3" fill="white" opacity="0.39"/>
  <circle cx="51" cy="90" r="1.7" fill="white" opacity="0.67"/>
  <circle cx="203" cy="77" r="0.6" fill="white" opacity="0.47"/>
  <circle cx="369" cy="27" r="1.8" fill="white" opacity="0.63"/>
  <circle cx="373" cy="53" r="1.5" fill="white" opacity="0.54"/>
  <circle cx="154" cy="136" r="0.8" fill="white" opacity="0.35"/>
  <circle cx="339" cy="95" r="1.8" fill="white" opacity="0.23"/>
  <circle cx="56" cy="52" r="0.9" fill="white" opacity="0.22"/>
  <circle cx="411" cy="133" r="1.1" fill="white" opacity="0.55"/>
  <circle cx="125" cy="40" r="1.0" fill="white" opacity="0.51"/>
  <circle cx="478" cy="88" r="0.9" fill="white" opacity="0.21"/>
  <circle cx="308" cy="80" r="1.1" fill="white" opacity="0.22"/>
  <circle cx="237" cy="100" r="0.7" fill="white" opacity="0.56"/>
  <!-- Icon -->
  <text x="250" y="58" text-anchor="middle" font-size="48" fill="white" opacity="0.9">🐦</text>
  <!-- Title -->
  <text x="250" y="105" text-anchor="middle" font-family="monospace" font-weight="bold" font-size="26" fill="#C4B5FD" filter="url(#textGlow)">FLAPPY</text>
  <!-- Subtitle -->
  <text x="250" y="130" text-anchor="middle" font-family="monospace" font-size="10" fill="white" opacity="0.4">YOUR WORLD ARCADE</text>
  <!-- Accent line -->
  <rect x="170" y="142" width="160" height="1.5" rx="1" fill="#C4B5FD" opacity="0.3"/>
</svg>