<svg xmlns="http://www.w3.org/2000/svg" viewBox="0 0 500 180" width="500" height="180">
  <defs>
    <linearGradient id="bg" x1="0" y1="0" x2="1" y2="1">
      <stop offset="0%" stop-color="rgb(6,39,18)"/>
      <stop offset="50%" stop-color="rgb(10,59,28)"/>
      <stop offset="100%" stop-color="rgb(4,23,11)"/>
    </linearGradient>
    <radialGradient id="glow" cx="50%" cy="50%" r="45%">
      <stop offset="0%" stop-color="#22C55E" stop-opacity="0.25"/>
      <stop offset="100%" stop-color="#22C55E" stop-opacity="0"/>
    </radialGradient>
    <filter id="textGlow">
      <feGaussianBlur stdDeviation="3" result="blur"/>
      <feMerge><feMergeNode in="blur"/><feMergeNode in="SourceGraphic"/></feMerge>
    </filter>
  </defs>
  <rect width="500" height="180" fill="url(#bg)"/>
  <rect width="500" height="180" fill="url(#glow)"/>
  <!-- Stars -->
  <circle cx="397" cy="89" r="1.6" fill="white" opacity="0.22"/>
  <circle cx="207" cy="81" r="1.5" fill="white" opacity="0.34"/>
  <circle cx="28" cy="30" r="1.8" fill="white" opacity="0.46"/>
  <circle cx="381" cy="23" r="1.6" fill="white" opacity="0.55"/>
  <circle cx="461" cy="148" r="0.9" fill="white" opacity="0.66"/>
  <circle cx="193" cy="69" r="0.5" fill="white" opacity="0.68"/>
  <circle cx="159" cy="22" r="1.8" fill="white" opacity="0.55"/>
  <circle cx="362" cy="158" r="1.7" fill="white" opacity="0.26"/>
  <circle cx="106" cy="140" r="0.6" fill="white" opacity="0.21"/>
  <circle cx="393" cy="94" r="1.6" fill="white" opacity="0.68"/>
  <circle cx="392" cy="122" r="1.6" fill="white" opacity="0.61"/>
  <circle cx="271" cy="78" r="1.3" fill="white" opacity="0.60"/>
  <circle cx="392" cy="106" r="1.5" fill="white" opacity="0.66"/>
  <circle cx="324" cy="54" r="1.2" fill="white" opacity="0.31"/>
  <circle cx="293" cy="84" r="0.9" fill="white" opacity="0.43"/>
  <circle cx="271" cy="69" r="1.0" fill="white" opacity="0.37"/>
  <circle cx="38" cy="60" r="1.8" fill="white" opacity="0.53"/>
  <circle cx="476" cy="156" r="1.3" fill="white" opacity="0.58"/>
  <circle cx="204" cy="50" r="1.8" fill="white" opacity="0.51"/>
  <circle cx="350" cy="106" r="0.8" fill="white" opacity="0.42"/>
  <circle cx="244" cy="161" r="0.6" fill="white" opacity="0.24"/>
  <circle cx="138" cy="166" r="1.9" fill="white" opacity="0.58"/>
  <circle cx="205" cy="118" r="1.5" fill="white" opacity="0.24"/>
  <circle cx="50" cy="29" r="1.1" fill="white" opacity="0.54"/>
  <circle cx="391" cy="11" r="0.8" fill="white" opacity="0.44"/>
  <!-- Icon -->
  <text x="250" y="58" text-anchor="middle" font-size="48" fill="white" opacity="0.9">🐸</text>
  <!-- Title -->
  <text x="250" y="105" text-anchor="middle" font-family="monospace" font-weight="bold" font-size="26" fill="#22C55E" filter="url(#textGlow)">FROGGER</text>
  <!-- Subtitle -->
  <text x="250" y="130" text-anchor="middle" font-family="monospace" font-size="10" fill="white" opacity="0.4">YOUR WORLD ARCADE</text>
  <!-- Accent line -->
  <rect x="170" y="142" width="160" height="1.5" rx="1" fill="#22C55E" opacity="0.3"/>
</svg>