<svg xmlns="http://www.w3.org/2000/svg" viewBox="0 0 500 180" width="500" height="180">
  <defs>
    <linearGradient id="bg" x1="0" y1="0" x2="1" y2="1">
      <stop offset="0%" stop-color="rgb(11,26,49)"/>
      <stop offset="50%" stop-color="rgb(17,39,73)"/>
      <stop offset="100%" stop-color="rgb(7,15,29)"/>
    </linearGradient>
    <radialGradient id="glow" cx="50%" cy="50%" r="45%">
      <stop offset="0%" stop-color="#3B82F6" stop-opacity="0.25"/>
      <stop offset="100%" stop-color="#3B82F6" stop-opacity="0"/>
    </radialGradient>
    <filter id="textGlow">
      <feGaussianBlur stdDeviation="3" result="blur"/>
      <feMerge><feMergeNode in="blur"/><feMergeNode in="SourceGraphic"/></feMerge>
    </filter>
  </defs>
  <rect width="500" height="180" fill="url(#bg)"/>
  <rect width="500" height="180" fill="url(#glow)"/>
  <!-- Stars -->
  <circle cx="391" cy="159" r="1.1" fill="white" opacity="0.66"/>
  <circle cx="468" cy="109" r="1.2" fill="white" opacity="0.62"/>
  <circle cx="259" cy="160" r="2.0" fill="white" opacity="0.58"/>
  <circle cx="98" cy="30" r="1.8" fill="white" opacity="0.20"/>
  <circle cx="285" cy="144" r="1.2" fill="white" opacity="0.56"/>
  <circle cx="280" cy="157" r="1.9" fill="white" opacity="0.54"/>
  <circle cx="231" cy="72" r="0.5" fill="white" opacity="0.39"/>
  <circle cx="214" cy="148" r="2.0" fill="white" opacity="0.66"/>
  <circle cx="77" cy="127" r="1.3" fill="white" opacity="0.69"/>
  <circle cx="355" cy="74" r="1.4" fill="white" opacity="0.35"/>
  <circle cx="314" cy="72" r="1.3" fill="white" opacity="0.54"/>
  <circle cx="205" cy="79" r="1.7" fill="white" opacity="0.41"/>
  <circle cx="177" cy="72" r="0.6" fill="white" opacity="0.57"/>
  <circle cx="358" cy="116" r="1.8" fill="white" opacity="0.51"/>
  <circle cx="407" cy="101" r="1.5" fill="white" opacity="0.65"/>
  <circle cx="288" cy="60" r="0.7" fill="white" opacity="0.26"/>
  <circle cx="411" cy="64" r="1.3" fill="white" opacity="0.24"/>
  <circle cx="329" cy="149" r="1.6" fill="white" opacity="0.58"/>
  <circle cx="375" cy="117" r="1.7" fill="white" opacity="0.28"/>
  <circle cx="343" cy="89" r="0.7" fill="white" opacity="0.62"/>
  <circle cx="71" cy="46" r="1.9" fill="white" opacity="0.49"/>
  <circle cx="204" cy="104" r="0.8" fill="white" opacity="0.59"/>
  <circle cx="287" cy="160" r="0.6" fill="white" opacity="0.45"/>
  <circle cx="214" cy="18" r="0.5" fill="white" opacity="0.44"/>
  <circle cx="248" cy="112" r="1.6" fill="white" opacity="0.64"/>
  <!-- Icon -->
  <text x="250" y="58" text-anchor="middle" font-size="48" fill="white" opacity="0.9">👾</text>
  <!-- Title -->
  <text x="250" y="105" text-anchor="middle" font-family="monospace" font-weight="bold" font-size="26" fill="#3B82F6" filter="url(#textGlow)">GALAGA</text>
  <!-- Subtitle -->
  <text x="250" y="130" text-anchor="middle" font-family="monospace" font-size="10" fill="white" opacity="0.4">YOUR WORLD ARCADE</text>
  <!-- Accent line -->
  <rect x="170" y="142" width="160" height="1.5" rx="1" fill="#3B82F6" opacity="0.3"/>
</svg>