<svg xmlns="http://www.w3.org/2000/svg" viewBox="0 0 500 180" width="500" height="180">
  <defs>
    <linearGradient id="bg" x1="0" y1="0" x2="1" y2="1">
      <stop offset="0%" stop-color="rgb(6,39,18)"/>
      <stop offset="50%" stop-color="rgb(10,59,28)"/>
      <stop offset="100%" stop-color="rgb(4,23,11)"/>
    </linearGradient>
    <radialGradient id="glow" cx="50%" cy="50%" r="45%">
      <stop offset="0%" stop-color="#22C55E" stop-opacity="0.25"/>
      <stop offset="100%" stop-color="#22C55E" stop-opacity="0"/>
    </radialGradient>
    <filter id="textGlow">
      <feGaussianBlur stdDeviation="3" result="blur"/>
      <feMerge><feMergeNode in="blur"/><feMergeNode in="SourceGraphic"/></feMerge>
    </filter>
  </defs>
  <rect width="500" height="180" fill="url(#bg)"/>
  <rect width="500" height="180" fill="url(#glow)"/>
  <!-- Stars -->
  <circle cx="261" cy="131" r="1.2" fill="white" opacity="0.38"/>
  <circle cx="484" cy="84" r="1.2" fill="white" opacity="0.64"/>
  <circle cx="200" cy="32" r="1.1" fill="white" opacity="0.53"/>
  <circle cx="475" cy="43" r="1.1" fill="white" opacity="0.60"/>
  <circle cx="99" cy="106" r="1.6" fill="white" opacity="0.39"/>
  <circle cx="263" cy="48" r="1.6" fill="white" opacity="0.59"/>
  <circle cx="50" cy="21" r="0.8" fill="white" opacity="0.22"/>
  <circle cx="433" cy="34" r="1.7" fill="white" opacity="0.31"/>
  <circle cx="332" cy="106" r="1.2" fill="white" opacity="0.63"/>
  <circle cx="258" cy="55" r="1.6" fill="white" opacity="0.70"/>
  <circle cx="415" cy="49" r="1.3" fill="white" opacity="0.47"/>
  <circle cx="241" cy="159" r="0.7" fill="white" opacity="0.48"/>
  <circle cx="120" cy="156" r="0.9" fill="white" opacity="0.38"/>
  <circle cx="415" cy="101" r="1.8" fill="white" opacity="0.67"/>
  <circle cx="218" cy="27" r="1.7" fill="white" opacity="0.64"/>
  <circle cx="141" cy="118" r="1.3" fill="white" opacity="0.34"/>
  <circle cx="129" cy="83" r="0.7" fill="white" opacity="0.50"/>
  <circle cx="417" cy="22" r="1.1" fill="white" opacity="0.65"/>
  <circle cx="249" cy="65" r="1.0" fill="white" opacity="0.24"/>
  <circle cx="86" cy="64" r="1.5" fill="white" opacity="0.40"/>
  <circle cx="378" cy="168" r="0.7" fill="white" opacity="0.41"/>
  <circle cx="474" cy="125" r="0.5" fill="white" opacity="0.49"/>
  <circle cx="95" cy="74" r="1.8" fill="white" opacity="0.70"/>
  <circle cx="334" cy="36" r="2.0" fill="white" opacity="0.21"/>
  <circle cx="298" cy="22" r="1.7" fill="white" opacity="0.40"/>
  <!-- Icon -->
  <text x="250" y="58" text-anchor="middle" font-size="48" fill="white" opacity="0.9">🦘</text>
  <!-- Title -->
  <text x="250" y="105" text-anchor="middle" font-family="monospace" font-weight="bold" font-size="26" fill="#22C55E" filter="url(#textGlow)">GOOFY'S POGO</text>
  <!-- Subtitle -->
  <text x="250" y="130" text-anchor="middle" font-family="monospace" font-size="10" fill="white" opacity="0.4">YOUR WORLD ARCADE</text>
  <!-- Accent line -->
  <rect x="170" y="142" width="160" height="1.5" rx="1" fill="#22C55E" opacity="0.3"/>
</svg>