<svg xmlns="http://www.w3.org/2000/svg" viewBox="0 0 500 180" width="500" height="180">
  <defs>
    <linearGradient id="bg" x1="0" y1="0" x2="1" y2="1">
      <stop offset="0%" stop-color="rgb(47,14,30)"/>
      <stop offset="50%" stop-color="rgb(70,21,45)"/>
      <stop offset="100%" stop-color="rgb(28,8,18)"/>
    </linearGradient>
    <radialGradient id="glow" cx="50%" cy="50%" r="45%">
      <stop offset="0%" stop-color="#EC4899" stop-opacity="0.25"/>
      <stop offset="100%" stop-color="#EC4899" stop-opacity="0"/>
    </radialGradient>
    <filter id="textGlow">
      <feGaussianBlur stdDeviation="3" result="blur"/>
      <feMerge><feMergeNode in="blur"/><feMergeNode in="SourceGraphic"/></feMerge>
    </filter>
  </defs>
  <rect width="500" height="180" fill="url(#bg)"/>
  <rect width="500" height="180" fill="url(#glow)"/>
  <!-- Stars -->
  <circle cx="169" cy="18" r="1.0" fill="white" opacity="0.62"/>
  <circle cx="56" cy="44" r="1.9" fill="white" opacity="0.46"/>
  <circle cx="145" cy="151" r="1.0" fill="white" opacity="0.56"/>
  <circle cx="149" cy="116" r="1.3" fill="white" opacity="0.31"/>
  <circle cx="325" cy="92" r="1.8" fill="white" opacity="0.26"/>
  <circle cx="415" cy="76" r="1.5" fill="white" opacity="0.24"/>
  <circle cx="410" cy="120" r="0.9" fill="white" opacity="0.24"/>
  <circle cx="405" cy="152" r="1.8" fill="white" opacity="0.65"/>
  <circle cx="183" cy="25" r="0.7" fill="white" opacity="0.40"/>
  <circle cx="303" cy="91" r="1.6" fill="white" opacity="0.55"/>
  <circle cx="19" cy="39" r="1.7" fill="white" opacity="0.24"/>
  <circle cx="302" cy="162" r="1.9" fill="white" opacity="0.62"/>
  <circle cx="152" cy="19" r="1.0" fill="white" opacity="0.49"/>
  <circle cx="386" cy="147" r="1.0" fill="white" opacity="0.56"/>
  <circle cx="127" cy="87" r="1.4" fill="white" opacity="0.24"/>
  <circle cx="64" cy="74" r="1.7" fill="white" opacity="0.41"/>
  <circle cx="395" cy="156" r="1.5" fill="white" opacity="0.51"/>
  <circle cx="296" cy="70" r="1.0" fill="white" opacity="0.20"/>
  <circle cx="418" cy="65" r="1.8" fill="white" opacity="0.24"/>
  <circle cx="273" cy="29" r="1.6" fill="white" opacity="0.58"/>
  <circle cx="346" cy="19" r="1.4" fill="white" opacity="0.35"/>
  <circle cx="304" cy="98" r="1.6" fill="white" opacity="0.53"/>
  <circle cx="84" cy="14" r="0.8" fill="white" opacity="0.32"/>
  <circle cx="138" cy="86" r="1.0" fill="white" opacity="0.53"/>
  <circle cx="229" cy="148" r="1.1" fill="white" opacity="0.55"/>
  <!-- Icon -->
  <text x="250" y="58" text-anchor="middle" font-size="48" fill="white" opacity="0.9">🏇</text>
  <!-- Title -->
  <text x="250" y="105" text-anchor="middle" font-family="monospace" font-weight="bold" font-size="26" fill="#EC4899" filter="url(#textGlow)">JOUST</text>
  <!-- Subtitle -->
  <text x="250" y="130" text-anchor="middle" font-family="monospace" font-size="10" fill="white" opacity="0.4">YOUR WORLD ARCADE</text>
  <!-- Accent line -->
  <rect x="170" y="142" width="160" height="1.5" rx="1" fill="#EC4899" opacity="0.3"/>
</svg>