<svg xmlns="http://www.w3.org/2000/svg" viewBox="0 0 500 180" width="500" height="180">
  <defs>
    <linearGradient id="bg" x1="0" y1="0" x2="1" y2="1">
      <stop offset="0%" stop-color="rgb(49,31,2)"/>
      <stop offset="50%" stop-color="rgb(73,47,3)"/>
      <stop offset="100%" stop-color="rgb(29,18,1)"/>
    </linearGradient>
    <radialGradient id="glow" cx="50%" cy="50%" r="45%">
      <stop offset="0%" stop-color="#F59E0B" stop-opacity="0.25"/>
      <stop offset="100%" stop-color="#F59E0B" stop-opacity="0"/>
    </radialGradient>
    <filter id="textGlow">
      <feGaussianBlur stdDeviation="3" result="blur"/>
      <feMerge><feMergeNode in="blur"/><feMergeNode in="SourceGraphic"/></feMerge>
    </filter>
  </defs>
  <rect width="500" height="180" fill="url(#bg)"/>
  <rect width="500" height="180" fill="url(#glow)"/>
  <!-- Stars -->
  <circle cx="378" cy="166" r="1.4" fill="white" opacity="0.60"/>
  <circle cx="410" cy="31" r="1.1" fill="white" opacity="0.65"/>
  <circle cx="257" cy="111" r="0.6" fill="white" opacity="0.27"/>
  <circle cx="107" cy="70" r="1.6" fill="white" opacity="0.62"/>
  <circle cx="202" cy="23" r="1.3" fill="white" opacity="0.68"/>
  <circle cx="306" cy="57" r="1.5" fill="white" opacity="0.48"/>
  <circle cx="116" cy="118" r="1.6" fill="white" opacity="0.44"/>
  <circle cx="88" cy="28" r="1.7" fill="white" opacity="0.31"/>
  <circle cx="275" cy="34" r="1.1" fill="white" opacity="0.22"/>
  <circle cx="24" cy="135" r="0.9" fill="white" opacity="0.32"/>
  <circle cx="428" cy="160" r="2.0" fill="white" opacity="0.37"/>
  <circle cx="203" cy="141" r="1.5" fill="white" opacity="0.54"/>
  <circle cx="342" cy="117" r="1.7" fill="white" opacity="0.49"/>
  <circle cx="454" cy="41" r="1.1" fill="white" opacity="0.50"/>
  <circle cx="190" cy="27" r="1.2" fill="white" opacity="0.22"/>
  <circle cx="455" cy="42" r="1.8" fill="white" opacity="0.62"/>
  <circle cx="231" cy="69" r="1.2" fill="white" opacity="0.44"/>
  <circle cx="97" cy="150" r="1.7" fill="white" opacity="0.67"/>
  <circle cx="364" cy="91" r="1.3" fill="white" opacity="0.66"/>
  <circle cx="40" cy="45" r="0.8" fill="white" opacity="0.55"/>
  <circle cx="182" cy="59" r="1.3" fill="white" opacity="0.48"/>
  <circle cx="43" cy="161" r="1.4" fill="white" opacity="0.35"/>
  <circle cx="136" cy="158" r="0.9" fill="white" opacity="0.66"/>
  <circle cx="414" cy="13" r="1.2" fill="white" opacity="0.67"/>
  <circle cx="56" cy="74" r="0.9" fill="white" opacity="0.55"/>
  <!-- Icon -->
  <text x="250" y="58" text-anchor="middle" font-size="48" fill="white" opacity="0.9">🏃</text>
  <!-- Title -->
  <text x="250" y="105" text-anchor="middle" font-family="monospace" font-weight="bold" font-size="26" fill="#F59E0B" filter="url(#textGlow)">JUMP DASH</text>
  <!-- Subtitle -->
  <text x="250" y="130" text-anchor="middle" font-family="monospace" font-size="10" fill="white" opacity="0.4">YOUR WORLD ARCADE</text>
  <!-- Accent line -->
  <rect x="170" y="142" width="160" height="1.5" rx="1" fill="#F59E0B" opacity="0.3"/>
</svg>