<svg xmlns="http://www.w3.org/2000/svg" viewBox="0 0 500 180" width="500" height="180">
  <defs>
    <linearGradient id="bg" x1="0" y1="0" x2="1" y2="1">
      <stop offset="0%" stop-color="rgb(47,14,30)"/>
      <stop offset="50%" stop-color="rgb(70,21,45)"/>
      <stop offset="100%" stop-color="rgb(28,8,18)"/>
    </linearGradient>
    <radialGradient id="glow" cx="50%" cy="50%" r="45%">
      <stop offset="0%" stop-color="#EC4899" stop-opacity="0.25"/>
      <stop offset="100%" stop-color="#EC4899" stop-opacity="0"/>
    </radialGradient>
    <filter id="textGlow">
      <feGaussianBlur stdDeviation="3" result="blur"/>
      <feMerge><feMergeNode in="blur"/><feMergeNode in="SourceGraphic"/></feMerge>
    </filter>
  </defs>
  <rect width="500" height="180" fill="url(#bg)"/>
  <rect width="500" height="180" fill="url(#glow)"/>
  <!-- Stars -->
  <circle cx="479" cy="35" r="0.6" fill="white" opacity="0.33"/>
  <circle cx="369" cy="38" r="2.0" fill="white" opacity="0.38"/>
  <circle cx="359" cy="20" r="1.8" fill="white" opacity="0.67"/>
  <circle cx="424" cy="93" r="2.0" fill="white" opacity="0.65"/>
  <circle cx="213" cy="156" r="1.6" fill="white" opacity="0.57"/>
  <circle cx="468" cy="50" r="1.3" fill="white" opacity="0.57"/>
  <circle cx="391" cy="100" r="1.1" fill="white" opacity="0.69"/>
  <circle cx="348" cy="100" r="0.9" fill="white" opacity="0.64"/>
  <circle cx="109" cy="88" r="1.5" fill="white" opacity="0.56"/>
  <circle cx="258" cy="134" r="1.0" fill="white" opacity="0.44"/>
  <circle cx="337" cy="63" r="1.6" fill="white" opacity="0.63"/>
  <circle cx="55" cy="168" r="1.0" fill="white" opacity="0.60"/>
  <circle cx="222" cy="77" r="1.6" fill="white" opacity="0.64"/>
  <circle cx="60" cy="79" r="1.0" fill="white" opacity="0.42"/>
  <circle cx="114" cy="44" r="1.7" fill="white" opacity="0.67"/>
  <circle cx="22" cy="68" r="1.8" fill="white" opacity="0.60"/>
  <circle cx="312" cy="13" r="1.4" fill="white" opacity="0.66"/>
  <circle cx="103" cy="64" r="1.7" fill="white" opacity="0.59"/>
  <circle cx="183" cy="121" r="1.7" fill="white" opacity="0.47"/>
  <circle cx="281" cy="151" r="1.9" fill="white" opacity="0.40"/>
  <circle cx="443" cy="144" r="0.7" fill="white" opacity="0.57"/>
  <circle cx="386" cy="24" r="1.1" fill="white" opacity="0.44"/>
  <circle cx="486" cy="143" r="0.9" fill="white" opacity="0.38"/>
  <circle cx="303" cy="98" r="0.8" fill="white" opacity="0.49"/>
  <circle cx="257" cy="87" r="1.3" fill="white" opacity="0.57"/>
  <!-- Icon -->
  <text x="250" y="58" text-anchor="middle" font-size="48" fill="white" opacity="0.9">🏓</text>
  <!-- Title -->
  <text x="250" y="105" text-anchor="middle" font-family="monospace" font-weight="bold" font-size="26" fill="#EC4899" filter="url(#textGlow)">BREAKOUT</text>
  <!-- Subtitle -->
  <text x="250" y="130" text-anchor="middle" font-family="monospace" font-size="10" fill="white" opacity="0.4">YOUR WORLD ARCADE</text>
  <!-- Accent line -->
  <rect x="170" y="142" width="160" height="1.5" rx="1" fill="#EC4899" opacity="0.3"/>
</svg>