<svg xmlns="http://www.w3.org/2000/svg" viewBox="0 0 500 180" width="500" height="180">
  <defs>
    <linearGradient id="bg" x1="0" y1="0" x2="1" y2="1">
      <stop offset="0%" stop-color="rgb(33,17,49)"/>
      <stop offset="50%" stop-color="rgb(50,25,74)"/>
      <stop offset="100%" stop-color="rgb(20,10,29)"/>
    </linearGradient>
    <radialGradient id="glow" cx="50%" cy="50%" r="45%">
      <stop offset="0%" stop-color="#A855F7" stop-opacity="0.25"/>
      <stop offset="100%" stop-color="#A855F7" stop-opacity="0"/>
    </radialGradient>
    <filter id="textGlow">
      <feGaussianBlur stdDeviation="3" result="blur"/>
      <feMerge><feMergeNode in="blur"/><feMergeNode in="SourceGraphic"/></feMerge>
    </filter>
  </defs>
  <rect width="500" height="180" fill="url(#bg)"/>
  <rect width="500" height="180" fill="url(#glow)"/>
  <!-- Stars -->
  <circle cx="472" cy="151" r="1.3" fill="white" opacity="0.68"/>
  <circle cx="486" cy="113" r="1.2" fill="white" opacity="0.26"/>
  <circle cx="319" cy="85" r="1.5" fill="white" opacity="0.69"/>
  <circle cx="364" cy="80" r="0.6" fill="white" opacity="0.52"/>
  <circle cx="471" cy="66" r="1.1" fill="white" opacity="0.49"/>
  <circle cx="205" cy="119" r="1.8" fill="white" opacity="0.31"/>
  <circle cx="489" cy="57" r="1.0" fill="white" opacity="0.55"/>
  <circle cx="216" cy="12" r="1.4" fill="white" opacity="0.31"/>
  <circle cx="71" cy="164" r="1.6" fill="white" opacity="0.56"/>
  <circle cx="269" cy="143" r="1.2" fill="white" opacity="0.36"/>
  <circle cx="366" cy="73" r="1.8" fill="white" opacity="0.27"/>
  <circle cx="141" cy="75" r="1.3" fill="white" opacity="0.32"/>
  <circle cx="99" cy="159" r="1.8" fill="white" opacity="0.61"/>
  <circle cx="480" cy="107" r="0.7" fill="white" opacity="0.35"/>
  <circle cx="232" cy="67" r="1.8" fill="white" opacity="0.34"/>
  <circle cx="322" cy="20" r="0.9" fill="white" opacity="0.68"/>
  <circle cx="182" cy="163" r="1.9" fill="white" opacity="0.59"/>
  <circle cx="327" cy="136" r="0.8" fill="white" opacity="0.69"/>
  <circle cx="85" cy="59" r="1.2" fill="white" opacity="0.37"/>
  <circle cx="366" cy="124" r="1.0" fill="white" opacity="0.26"/>
  <circle cx="424" cy="161" r="1.2" fill="white" opacity="0.27"/>
  <circle cx="18" cy="161" r="1.4" fill="white" opacity="0.63"/>
  <circle cx="85" cy="106" r="0.6" fill="white" opacity="0.62"/>
  <circle cx="251" cy="84" r="0.6" fill="white" opacity="0.51"/>
  <circle cx="39" cy="152" r="1.5" fill="white" opacity="0.53"/>
  <!-- Icon -->
  <text x="250" y="58" text-anchor="middle" font-size="48" fill="white" opacity="0.9">🧱</text>
  <!-- Title -->
  <text x="250" y="105" text-anchor="middle" font-family="monospace" font-weight="bold" font-size="26" fill="#A855F7" filter="url(#textGlow)">BLOCK STACK</text>
  <!-- Subtitle -->
  <text x="250" y="130" text-anchor="middle" font-family="monospace" font-size="10" fill="white" opacity="0.4">YOUR WORLD ARCADE</text>
  <!-- Accent line -->
  <rect x="170" y="142" width="160" height="1.5" rx="1" fill="#A855F7" opacity="0.3"/>
</svg>