<svg xmlns="http://www.w3.org/2000/svg" viewBox="0 0 500 180" width="500" height="180">
  <defs>
    <linearGradient id="bg" x1="0" y1="0" x2="1" y2="1">
      <stop offset="0%" stop-color="rgb(1,36,42)"/>
      <stop offset="50%" stop-color="rgb(1,54,63)"/>
      <stop offset="100%" stop-color="rgb(0,21,25)"/>
    </linearGradient>
    <radialGradient id="glow" cx="50%" cy="50%" r="45%">
      <stop offset="0%" stop-color="#06B6D4" stop-opacity="0.25"/>
      <stop offset="100%" stop-color="#06B6D4" stop-opacity="0"/>
    </radialGradient>
    <filter id="textGlow">
      <feGaussianBlur stdDeviation="3" result="blur"/>
      <feMerge><feMergeNode in="blur"/><feMergeNode in="SourceGraphic"/></feMerge>
    </filter>
  </defs>
  <rect width="500" height="180" fill="url(#bg)"/>
  <rect width="500" height="180" fill="url(#glow)"/>
  <!-- Stars -->
  <circle cx="268" cy="103" r="1.3" fill="white" opacity="0.65"/>
  <circle cx="248" cy="54" r="1.3" fill="white" opacity="0.38"/>
  <circle cx="438" cy="50" r="1.3" fill="white" opacity="0.43"/>
  <circle cx="484" cy="133" r="0.9" fill="white" opacity="0.43"/>
  <circle cx="180" cy="62" r="0.7" fill="white" opacity="0.20"/>
  <circle cx="96" cy="151" r="1.6" fill="white" opacity="0.42"/>
  <circle cx="452" cy="141" r="0.6" fill="white" opacity="0.70"/>
  <circle cx="225" cy="10" r="1.3" fill="white" opacity="0.39"/>
  <circle cx="192" cy="38" r="1.9" fill="white" opacity="0.58"/>
  <circle cx="353" cy="162" r="0.6" fill="white" opacity="0.28"/>
  <circle cx="474" cy="129" r="0.8" fill="white" opacity="0.59"/>
  <circle cx="434" cy="126" r="0.7" fill="white" opacity="0.50"/>
  <circle cx="428" cy="92" r="1.3" fill="white" opacity="0.65"/>
  <circle cx="15" cy="116" r="0.8" fill="white" opacity="0.68"/>
  <circle cx="471" cy="61" r="1.5" fill="white" opacity="0.54"/>
  <circle cx="107" cy="67" r="1.2" fill="white" opacity="0.22"/>
  <circle cx="159" cy="19" r="1.6" fill="white" opacity="0.62"/>
  <circle cx="120" cy="99" r="0.8" fill="white" opacity="0.56"/>
  <circle cx="271" cy="132" r="1.7" fill="white" opacity="0.64"/>
  <circle cx="323" cy="162" r="1.9" fill="white" opacity="0.62"/>
  <circle cx="305" cy="103" r="1.8" fill="white" opacity="0.34"/>
  <circle cx="465" cy="36" r="1.6" fill="white" opacity="0.27"/>
  <circle cx="136" cy="103" r="1.9" fill="white" opacity="0.23"/>
  <circle cx="52" cy="109" r="1.9" fill="white" opacity="0.38"/>
  <circle cx="208" cy="99" r="0.7" fill="white" opacity="0.20"/>
  <!-- Icon -->
  <text x="250" y="58" text-anchor="middle" font-size="48" fill="white" opacity="0.9">🃏</text>
  <!-- Title -->
  <text x="250" y="105" text-anchor="middle" font-family="monospace" font-weight="bold" font-size="26" fill="#06B6D4" filter="url(#textGlow)">MEMORY MATCH</text>
  <!-- Subtitle -->
  <text x="250" y="130" text-anchor="middle" font-family="monospace" font-size="10" fill="white" opacity="0.4">YOUR WORLD ARCADE</text>
  <!-- Accent line -->
  <rect x="170" y="142" width="160" height="1.5" rx="1" fill="#06B6D4" opacity="0.3"/>
</svg>