<svg xmlns="http://www.w3.org/2000/svg" viewBox="0 0 500 180" width="500" height="180">
  <defs>
    <linearGradient id="bg" x1="0" y1="0" x2="1" y2="1">
      <stop offset="0%" stop-color="rgb(47,13,13)"/>
      <stop offset="50%" stop-color="rgb(71,20,20)"/>
      <stop offset="100%" stop-color="rgb(28,8,8)"/>
    </linearGradient>
    <radialGradient id="glow" cx="50%" cy="50%" r="45%">
      <stop offset="0%" stop-color="#EF4444" stop-opacity="0.25"/>
      <stop offset="100%" stop-color="#EF4444" stop-opacity="0"/>
    </radialGradient>
    <filter id="textGlow">
      <feGaussianBlur stdDeviation="3" result="blur"/>
      <feMerge><feMergeNode in="blur"/><feMergeNode in="SourceGraphic"/></feMerge>
    </filter>
  </defs>
  <rect width="500" height="180" fill="url(#bg)"/>
  <rect width="500" height="180" fill="url(#glow)"/>
  <!-- Stars -->
  <circle cx="332" cy="87" r="0.6" fill="white" opacity="0.31"/>
  <circle cx="170" cy="54" r="1.9" fill="white" opacity="0.41"/>
  <circle cx="61" cy="129" r="1.2" fill="white" opacity="0.54"/>
  <circle cx="378" cy="105" r="1.7" fill="white" opacity="0.49"/>
  <circle cx="87" cy="46" r="1.6" fill="white" opacity="0.40"/>
  <circle cx="448" cy="24" r="1.5" fill="white" opacity="0.39"/>
  <circle cx="240" cy="38" r="1.3" fill="white" opacity="0.28"/>
  <circle cx="477" cy="165" r="0.8" fill="white" opacity="0.59"/>
  <circle cx="469" cy="94" r="1.1" fill="white" opacity="0.63"/>
  <circle cx="254" cy="152" r="1.7" fill="white" opacity="0.34"/>
  <circle cx="297" cy="151" r="1.5" fill="white" opacity="0.57"/>
  <circle cx="104" cy="37" r="2.0" fill="white" opacity="0.32"/>
  <circle cx="212" cy="37" r="1.2" fill="white" opacity="0.51"/>
  <circle cx="86" cy="57" r="1.1" fill="white" opacity="0.38"/>
  <circle cx="79" cy="110" r="1.2" fill="white" opacity="0.39"/>
  <circle cx="227" cy="56" r="0.9" fill="white" opacity="0.54"/>
  <circle cx="432" cy="125" r="0.6" fill="white" opacity="0.70"/>
  <circle cx="463" cy="136" r="1.8" fill="white" opacity="0.68"/>
  <circle cx="270" cy="64" r="0.6" fill="white" opacity="0.20"/>
  <circle cx="353" cy="99" r="0.5" fill="white" opacity="0.54"/>
  <circle cx="410" cy="114" r="0.8" fill="white" opacity="0.61"/>
  <circle cx="138" cy="110" r="1.5" fill="white" opacity="0.59"/>
  <circle cx="126" cy="126" r="1.9" fill="white" opacity="0.58"/>
  <circle cx="26" cy="61" r="1.7" fill="white" opacity="0.67"/>
  <circle cx="118" cy="31" r="0.6" fill="white" opacity="0.32"/>
  <!-- Icon -->
  <text x="250" y="58" text-anchor="middle" font-size="48" fill="white" opacity="0.9">🐭</text>
  <!-- Title -->
  <text x="250" y="105" text-anchor="middle" font-family="monospace" font-weight="bold" font-size="26" fill="#EF4444" filter="url(#textGlow)">MICKEY POP</text>
  <!-- Subtitle -->
  <text x="250" y="130" text-anchor="middle" font-family="monospace" font-size="10" fill="white" opacity="0.4">YOUR WORLD ARCADE</text>
  <!-- Accent line -->
  <rect x="170" y="142" width="160" height="1.5" rx="1" fill="#EF4444" opacity="0.3"/>
</svg>