<svg xmlns="http://www.w3.org/2000/svg" viewBox="0 0 500 180" width="500" height="180">
  <defs>
    <linearGradient id="bg" x1="0" y1="0" x2="1" y2="1">
      <stop offset="0%" stop-color="rgb(33,17,49)"/>
      <stop offset="50%" stop-color="rgb(50,25,74)"/>
      <stop offset="100%" stop-color="rgb(20,10,29)"/>
    </linearGradient>
    <radialGradient id="glow" cx="50%" cy="50%" r="45%">
      <stop offset="0%" stop-color="#A855F7" stop-opacity="0.25"/>
      <stop offset="100%" stop-color="#A855F7" stop-opacity="0"/>
    </radialGradient>
    <filter id="textGlow">
      <feGaussianBlur stdDeviation="3" result="blur"/>
      <feMerge><feMergeNode in="blur"/><feMergeNode in="SourceGraphic"/></feMerge>
    </filter>
  </defs>
  <rect width="500" height="180" fill="url(#bg)"/>
  <rect width="500" height="180" fill="url(#glow)"/>
  <!-- Stars -->
  <circle cx="436" cy="144" r="1.7" fill="white" opacity="0.63"/>
  <circle cx="323" cy="92" r="1.1" fill="white" opacity="0.65"/>
  <circle cx="252" cy="33" r="2.0" fill="white" opacity="0.62"/>
  <circle cx="10" cy="121" r="1.5" fill="white" opacity="0.39"/>
  <circle cx="73" cy="143" r="1.8" fill="white" opacity="0.63"/>
  <circle cx="225" cy="51" r="1.9" fill="white" opacity="0.67"/>
  <circle cx="290" cy="87" r="0.9" fill="white" opacity="0.58"/>
  <circle cx="182" cy="47" r="2.0" fill="white" opacity="0.54"/>
  <circle cx="156" cy="125" r="0.6" fill="white" opacity="0.33"/>
  <circle cx="61" cy="16" r="1.7" fill="white" opacity="0.27"/>
  <circle cx="325" cy="102" r="1.1" fill="white" opacity="0.53"/>
  <circle cx="293" cy="114" r="1.9" fill="white" opacity="0.37"/>
  <circle cx="269" cy="93" r="1.7" fill="white" opacity="0.24"/>
  <circle cx="341" cy="13" r="1.5" fill="white" opacity="0.65"/>
  <circle cx="118" cy="57" r="1.4" fill="white" opacity="0.30"/>
  <circle cx="31" cy="55" r="1.3" fill="white" opacity="0.68"/>
  <circle cx="268" cy="30" r="0.6" fill="white" opacity="0.55"/>
  <circle cx="431" cy="140" r="0.6" fill="white" opacity="0.48"/>
  <circle cx="87" cy="94" r="1.5" fill="white" opacity="0.20"/>
  <circle cx="140" cy="157" r="1.1" fill="white" opacity="0.62"/>
  <circle cx="183" cy="32" r="1.4" fill="white" opacity="0.48"/>
  <circle cx="275" cy="44" r="0.7" fill="white" opacity="0.36"/>
  <circle cx="17" cy="91" r="1.0" fill="white" opacity="0.52"/>
  <circle cx="319" cy="85" r="1.8" fill="white" opacity="0.50"/>
  <circle cx="443" cy="97" r="1.3" fill="white" opacity="0.30"/>
  <!-- Icon -->
  <text x="250" y="58" text-anchor="middle" font-size="48" fill="white" opacity="0.9">🎱</text>
  <!-- Title -->
  <text x="250" y="105" text-anchor="middle" font-family="monospace" font-weight="bold" font-size="26" fill="#A855F7" filter="url(#textGlow)">MINISTROKE</text>
  <!-- Subtitle -->
  <text x="250" y="130" text-anchor="middle" font-family="monospace" font-size="10" fill="white" opacity="0.4">YOUR WORLD ARCADE</text>
  <!-- Accent line -->
  <rect x="170" y="142" width="160" height="1.5" rx="1" fill="#A855F7" opacity="0.3"/>
</svg>