<svg xmlns="http://www.w3.org/2000/svg" viewBox="0 0 500 180" width="500" height="180">
  <defs>
    <linearGradient id="bg" x1="0" y1="0" x2="1" y2="1">
      <stop offset="0%" stop-color="rgb(47,14,30)"/>
      <stop offset="50%" stop-color="rgb(70,21,45)"/>
      <stop offset="100%" stop-color="rgb(28,8,18)"/>
    </linearGradient>
    <radialGradient id="glow" cx="50%" cy="50%" r="45%">
      <stop offset="0%" stop-color="#EC4899" stop-opacity="0.25"/>
      <stop offset="100%" stop-color="#EC4899" stop-opacity="0"/>
    </radialGradient>
    <filter id="textGlow">
      <feGaussianBlur stdDeviation="3" result="blur"/>
      <feMerge><feMergeNode in="blur"/><feMergeNode in="SourceGraphic"/></feMerge>
    </filter>
  </defs>
  <rect width="500" height="180" fill="url(#bg)"/>
  <rect width="500" height="180" fill="url(#glow)"/>
  <!-- Stars -->
  <circle cx="218" cy="94" r="1.9" fill="white" opacity="0.30"/>
  <circle cx="404" cy="157" r="0.9" fill="white" opacity="0.26"/>
  <circle cx="163" cy="143" r="1.2" fill="white" opacity="0.48"/>
  <circle cx="461" cy="29" r="1.2" fill="white" opacity="0.65"/>
  <circle cx="413" cy="16" r="0.7" fill="white" opacity="0.63"/>
  <circle cx="357" cy="24" r="0.6" fill="white" opacity="0.58"/>
  <circle cx="201" cy="32" r="1.6" fill="white" opacity="0.38"/>
  <circle cx="90" cy="142" r="1.2" fill="white" opacity="0.30"/>
  <circle cx="230" cy="168" r="1.6" fill="white" opacity="0.23"/>
  <circle cx="401" cy="59" r="0.5" fill="white" opacity="0.70"/>
  <circle cx="395" cy="37" r="0.9" fill="white" opacity="0.43"/>
  <circle cx="331" cy="127" r="1.8" fill="white" opacity="0.66"/>
  <circle cx="406" cy="157" r="1.6" fill="white" opacity="0.22"/>
  <circle cx="151" cy="98" r="1.1" fill="white" opacity="0.61"/>
  <circle cx="246" cy="20" r="0.6" fill="white" opacity="0.67"/>
  <circle cx="112" cy="83" r="0.6" fill="white" opacity="0.30"/>
  <circle cx="417" cy="51" r="1.8" fill="white" opacity="0.32"/>
  <circle cx="151" cy="59" r="1.0" fill="white" opacity="0.32"/>
  <circle cx="159" cy="88" r="1.6" fill="white" opacity="0.33"/>
  <circle cx="404" cy="97" r="0.6" fill="white" opacity="0.58"/>
  <circle cx="412" cy="36" r="0.8" fill="white" opacity="0.58"/>
  <circle cx="170" cy="119" r="0.5" fill="white" opacity="0.33"/>
  <circle cx="484" cy="166" r="1.1" fill="white" opacity="0.67"/>
  <circle cx="11" cy="104" r="1.5" fill="white" opacity="0.43"/>
  <circle cx="268" cy="133" r="1.2" fill="white" opacity="0.59"/>
  <!-- Icon -->
  <text x="250" y="58" text-anchor="middle" font-size="48" fill="white" opacity="0.9">🎀</text>
  <!-- Title -->
  <text x="250" y="105" text-anchor="middle" font-family="monospace" font-weight="bold" font-size="26" fill="#EC4899" filter="url(#textGlow)">MINNIE PAC</text>
  <!-- Subtitle -->
  <text x="250" y="130" text-anchor="middle" font-family="monospace" font-size="10" fill="white" opacity="0.4">YOUR WORLD ARCADE</text>
  <!-- Accent line -->
  <rect x="170" y="142" width="160" height="1.5" rx="1" fill="#EC4899" opacity="0.3"/>
</svg>