<svg xmlns="http://www.w3.org/2000/svg" viewBox="0 0 500 180" width="500" height="180">
  <defs>
    <linearGradient id="bg" x1="0" y1="0" x2="1" y2="1">
      <stop offset="0%" stop-color="rgb(11,37,49)"/>
      <stop offset="50%" stop-color="rgb(16,56,74)"/>
      <stop offset="100%" stop-color="rgb(6,22,29)"/>
    </linearGradient>
    <radialGradient id="glow" cx="50%" cy="50%" r="45%">
      <stop offset="0%" stop-color="#38BDF8" stop-opacity="0.25"/>
      <stop offset="100%" stop-color="#38BDF8" stop-opacity="0"/>
    </radialGradient>
    <filter id="textGlow">
      <feGaussianBlur stdDeviation="3" result="blur"/>
      <feMerge><feMergeNode in="blur"/><feMergeNode in="SourceGraphic"/></feMerge>
    </filter>
  </defs>
  <rect width="500" height="180" fill="url(#bg)"/>
  <rect width="500" height="180" fill="url(#glow)"/>
  <!-- Stars -->
  <circle cx="64" cy="68" r="1.7" fill="white" opacity="0.47"/>
  <circle cx="187" cy="72" r="0.8" fill="white" opacity="0.38"/>
  <circle cx="180" cy="18" r="1.5" fill="white" opacity="0.21"/>
  <circle cx="472" cy="80" r="1.5" fill="white" opacity="0.66"/>
  <circle cx="253" cy="77" r="1.4" fill="white" opacity="0.26"/>
  <circle cx="239" cy="17" r="1.9" fill="white" opacity="0.56"/>
  <circle cx="433" cy="48" r="2.0" fill="white" opacity="0.41"/>
  <circle cx="393" cy="134" r="0.7" fill="white" opacity="0.65"/>
  <circle cx="380" cy="60" r="1.9" fill="white" opacity="0.24"/>
  <circle cx="69" cy="79" r="1.0" fill="white" opacity="0.44"/>
  <circle cx="161" cy="156" r="0.8" fill="white" opacity="0.53"/>
  <circle cx="37" cy="84" r="0.7" fill="white" opacity="0.32"/>
  <circle cx="191" cy="90" r="0.9" fill="white" opacity="0.43"/>
  <circle cx="314" cy="72" r="0.9" fill="white" opacity="0.59"/>
  <circle cx="435" cy="103" r="0.6" fill="white" opacity="0.34"/>
  <circle cx="247" cy="74" r="1.4" fill="white" opacity="0.25"/>
  <circle cx="205" cy="37" r="1.3" fill="white" opacity="0.49"/>
  <circle cx="302" cy="93" r="1.6" fill="white" opacity="0.70"/>
  <circle cx="453" cy="64" r="1.5" fill="white" opacity="0.37"/>
  <circle cx="222" cy="74" r="1.3" fill="white" opacity="0.68"/>
  <circle cx="324" cy="131" r="1.3" fill="white" opacity="0.54"/>
  <circle cx="296" cy="86" r="0.6" fill="white" opacity="0.53"/>
  <circle cx="336" cy="89" r="1.9" fill="white" opacity="0.35"/>
  <circle cx="149" cy="145" r="1.7" fill="white" opacity="0.28"/>
  <circle cx="444" cy="129" r="1.1" fill="white" opacity="0.61"/>
  <!-- Icon -->
  <text x="250" y="58" text-anchor="middle" font-size="48" fill="white" opacity="0.9">🏓</text>
  <!-- Title -->
  <text x="250" y="105" text-anchor="middle" font-family="monospace" font-weight="bold" font-size="26" fill="#38BDF8" filter="url(#textGlow)">PONG</text>
  <!-- Subtitle -->
  <text x="250" y="130" text-anchor="middle" font-family="monospace" font-size="10" fill="white" opacity="0.4">YOUR WORLD ARCADE</text>
  <!-- Accent line -->
  <rect x="170" y="142" width="160" height="1.5" rx="1" fill="#38BDF8" opacity="0.3"/>
</svg>