<svg xmlns="http://www.w3.org/2000/svg" viewBox="0 0 500 180" width="500" height="180">
  <defs>
    <linearGradient id="bg" x1="0" y1="0" x2="1" y2="1">
      <stop offset="0%" stop-color="rgb(48,12,18)"/>
      <stop offset="50%" stop-color="rgb(73,18,28)"/>
      <stop offset="100%" stop-color="rgb(29,7,11)"/>
    </linearGradient>
    <radialGradient id="glow" cx="50%" cy="50%" r="45%">
      <stop offset="0%" stop-color="#F43F5E" stop-opacity="0.25"/>
      <stop offset="100%" stop-color="#F43F5E" stop-opacity="0"/>
    </radialGradient>
    <filter id="textGlow">
      <feGaussianBlur stdDeviation="3" result="blur"/>
      <feMerge><feMergeNode in="blur"/><feMergeNode in="SourceGraphic"/></feMerge>
    </filter>
  </defs>
  <rect width="500" height="180" fill="url(#bg)"/>
  <rect width="500" height="180" fill="url(#glow)"/>
  <!-- Stars -->
  <circle cx="453" cy="158" r="1.9" fill="white" opacity="0.65"/>
  <circle cx="402" cy="30" r="1.0" fill="white" opacity="0.47"/>
  <circle cx="33" cy="82" r="1.5" fill="white" opacity="0.65"/>
  <circle cx="475" cy="146" r="1.5" fill="white" opacity="0.36"/>
  <circle cx="289" cy="21" r="0.9" fill="white" opacity="0.52"/>
  <circle cx="185" cy="90" r="1.1" fill="white" opacity="0.56"/>
  <circle cx="432" cy="68" r="0.9" fill="white" opacity="0.60"/>
  <circle cx="475" cy="53" r="1.2" fill="white" opacity="0.35"/>
  <circle cx="265" cy="27" r="1.5" fill="white" opacity="0.28"/>
  <circle cx="487" cy="31" r="1.1" fill="white" opacity="0.55"/>
  <circle cx="481" cy="41" r="1.4" fill="white" opacity="0.49"/>
  <circle cx="379" cy="73" r="0.7" fill="white" opacity="0.62"/>
  <circle cx="488" cy="156" r="0.5" fill="white" opacity="0.29"/>
  <circle cx="348" cy="14" r="1.6" fill="white" opacity="0.63"/>
  <circle cx="113" cy="133" r="0.7" fill="white" opacity="0.40"/>
  <circle cx="76" cy="23" r="1.6" fill="white" opacity="0.54"/>
  <circle cx="169" cy="105" r="1.0" fill="white" opacity="0.48"/>
  <circle cx="58" cy="144" r="0.5" fill="white" opacity="0.61"/>
  <circle cx="209" cy="158" r="1.1" fill="white" opacity="0.34"/>
  <circle cx="241" cy="74" r="0.9" fill="white" opacity="0.68"/>
  <circle cx="426" cy="23" r="0.6" fill="white" opacity="0.39"/>
  <circle cx="330" cy="67" r="0.9" fill="white" opacity="0.29"/>
  <circle cx="439" cy="166" r="1.7" fill="white" opacity="0.37"/>
  <circle cx="288" cy="122" r="1.1" fill="white" opacity="0.53"/>
  <circle cx="471" cy="145" r="1.6" fill="white" opacity="0.38"/>
  <!-- Icon -->
  <text x="250" y="58" text-anchor="middle" font-size="48" fill="white" opacity="0.9">🫧</text>
  <!-- Title -->
  <text x="250" y="105" text-anchor="middle" font-family="monospace" font-weight="bold" font-size="26" fill="#F43F5E" filter="url(#textGlow)">BLOCK POP</text>
  <!-- Subtitle -->
  <text x="250" y="130" text-anchor="middle" font-family="monospace" font-size="10" fill="white" opacity="0.4">YOUR WORLD ARCADE</text>
  <!-- Accent line -->
  <rect x="170" y="142" width="160" height="1.5" rx="1" fill="#F43F5E" opacity="0.3"/>
</svg>