<svg xmlns="http://www.w3.org/2000/svg" viewBox="0 0 500 180" width="500" height="180">
  <defs>
    <linearGradient id="bg" x1="0" y1="0" x2="1" y2="1">
      <stop offset="0%" stop-color="rgb(6,39,18)"/>
      <stop offset="50%" stop-color="rgb(10,59,28)"/>
      <stop offset="100%" stop-color="rgb(4,23,11)"/>
    </linearGradient>
    <radialGradient id="glow" cx="50%" cy="50%" r="45%">
      <stop offset="0%" stop-color="#22C55E" stop-opacity="0.25"/>
      <stop offset="100%" stop-color="#22C55E" stop-opacity="0"/>
    </radialGradient>
    <filter id="textGlow">
      <feGaussianBlur stdDeviation="3" result="blur"/>
      <feMerge><feMergeNode in="blur"/><feMergeNode in="SourceGraphic"/></feMerge>
    </filter>
  </defs>
  <rect width="500" height="180" fill="url(#bg)"/>
  <rect width="500" height="180" fill="url(#glow)"/>
  <!-- Stars -->
  <circle cx="369" cy="133" r="1.0" fill="white" opacity="0.46"/>
  <circle cx="369" cy="162" r="1.2" fill="white" opacity="0.42"/>
  <circle cx="255" cy="26" r="1.3" fill="white" opacity="0.64"/>
  <circle cx="410" cy="116" r="1.8" fill="white" opacity="0.50"/>
  <circle cx="367" cy="64" r="1.5" fill="white" opacity="0.39"/>
  <circle cx="17" cy="150" r="2.0" fill="white" opacity="0.49"/>
  <circle cx="143" cy="100" r="1.1" fill="white" opacity="0.35"/>
  <circle cx="486" cy="71" r="1.2" fill="white" opacity="0.38"/>
  <circle cx="319" cy="159" r="1.7" fill="white" opacity="0.62"/>
  <circle cx="60" cy="165" r="2.0" fill="white" opacity="0.44"/>
  <circle cx="379" cy="142" r="1.7" fill="white" opacity="0.53"/>
  <circle cx="339" cy="19" r="1.7" fill="white" opacity="0.38"/>
  <circle cx="165" cy="166" r="0.6" fill="white" opacity="0.23"/>
  <circle cx="84" cy="144" r="1.2" fill="white" opacity="0.50"/>
  <circle cx="174" cy="121" r="1.0" fill="white" opacity="0.41"/>
  <circle cx="77" cy="159" r="1.0" fill="white" opacity="0.67"/>
  <circle cx="298" cy="87" r="1.9" fill="white" opacity="0.33"/>
  <circle cx="249" cy="30" r="0.7" fill="white" opacity="0.22"/>
  <circle cx="442" cy="84" r="1.4" fill="white" opacity="0.48"/>
  <circle cx="469" cy="34" r="1.0" fill="white" opacity="0.47"/>
  <circle cx="180" cy="20" r="0.8" fill="white" opacity="0.43"/>
  <circle cx="459" cy="165" r="1.0" fill="white" opacity="0.68"/>
  <circle cx="214" cy="127" r="0.9" fill="white" opacity="0.37"/>
  <circle cx="81" cy="123" r="1.4" fill="white" opacity="0.63"/>
  <circle cx="341" cy="46" r="1.8" fill="white" opacity="0.61"/>
  <!-- Icon -->
  <text x="250" y="58" text-anchor="middle" font-size="48" fill="white" opacity="0.9">🐛</text>
  <!-- Title -->
  <text x="250" y="105" text-anchor="middle" font-family="monospace" font-weight="bold" font-size="26" fill="#22C55E" filter="url(#textGlow)">CENTIPEDE</text>
  <!-- Subtitle -->
  <text x="250" y="130" text-anchor="middle" font-family="monospace" font-size="10" fill="white" opacity="0.4">YOUR WORLD ARCADE</text>
  <!-- Accent line -->
  <rect x="170" y="142" width="160" height="1.5" rx="1" fill="#22C55E" opacity="0.3"/>
</svg>