<svg xmlns="http://www.w3.org/2000/svg" viewBox="0 0 500 180" width="500" height="180">
  <defs>
    <linearGradient id="bg" x1="0" y1="0" x2="1" y2="1">
      <stop offset="0%" stop-color="rgb(47,13,13)"/>
      <stop offset="50%" stop-color="rgb(71,20,20)"/>
      <stop offset="100%" stop-color="rgb(28,8,8)"/>
    </linearGradient>
    <radialGradient id="glow" cx="50%" cy="50%" r="45%">
      <stop offset="0%" stop-color="#EF4444" stop-opacity="0.25"/>
      <stop offset="100%" stop-color="#EF4444" stop-opacity="0"/>
    </radialGradient>
    <filter id="textGlow">
      <feGaussianBlur stdDeviation="3" result="blur"/>
      <feMerge><feMergeNode in="blur"/><feMergeNode in="SourceGraphic"/></feMerge>
    </filter>
  </defs>
  <rect width="500" height="180" fill="url(#bg)"/>
  <rect width="500" height="180" fill="url(#glow)"/>
  <!-- Stars -->
  <circle cx="339" cy="21" r="1.7" fill="white" opacity="0.24"/>
  <circle cx="202" cy="72" r="1.9" fill="white" opacity="0.58"/>
  <circle cx="414" cy="33" r="1.9" fill="white" opacity="0.48"/>
  <circle cx="84" cy="137" r="1.6" fill="white" opacity="0.57"/>
  <circle cx="255" cy="91" r="0.8" fill="white" opacity="0.21"/>
  <circle cx="429" cy="56" r="1.7" fill="white" opacity="0.23"/>
  <circle cx="61" cy="148" r="0.7" fill="white" opacity="0.44"/>
  <circle cx="28" cy="107" r="1.5" fill="white" opacity="0.37"/>
  <circle cx="69" cy="29" r="1.0" fill="white" opacity="0.43"/>
  <circle cx="252" cy="83" r="1.4" fill="white" opacity="0.54"/>
  <circle cx="206" cy="52" r="0.6" fill="white" opacity="0.57"/>
  <circle cx="79" cy="45" r="1.7" fill="white" opacity="0.38"/>
  <circle cx="422" cy="158" r="1.1" fill="white" opacity="0.55"/>
  <circle cx="338" cy="33" r="1.6" fill="white" opacity="0.40"/>
  <circle cx="38" cy="46" r="1.4" fill="white" opacity="0.36"/>
  <circle cx="287" cy="83" r="0.9" fill="white" opacity="0.67"/>
  <circle cx="178" cy="48" r="1.7" fill="white" opacity="0.52"/>
  <circle cx="466" cy="47" r="1.5" fill="white" opacity="0.65"/>
  <circle cx="203" cy="98" r="1.2" fill="white" opacity="0.43"/>
  <circle cx="120" cy="69" r="0.7" fill="white" opacity="0.27"/>
  <circle cx="319" cy="13" r="1.0" fill="white" opacity="0.44"/>
  <circle cx="285" cy="101" r="1.0" fill="white" opacity="0.42"/>
  <circle cx="338" cy="133" r="0.9" fill="white" opacity="0.69"/>
  <circle cx="245" cy="61" r="1.4" fill="white" opacity="0.36"/>
  <circle cx="376" cy="91" r="1.3" fill="white" opacity="0.24"/>
  <!-- Icon -->
  <text x="250" y="58" text-anchor="middle" font-size="48" fill="white" opacity="0.9">🎯</text>
  <!-- Title -->
  <text x="250" y="105" text-anchor="middle" font-family="monospace" font-weight="bold" font-size="26" fill="#EF4444" filter="url(#textGlow)">MISSILE COMMAND</text>
  <!-- Subtitle -->
  <text x="250" y="130" text-anchor="middle" font-family="monospace" font-size="10" fill="white" opacity="0.4">YOUR WORLD ARCADE</text>
  <!-- Accent line -->
  <rect x="170" y="142" width="160" height="1.5" rx="1" fill="#EF4444" opacity="0.3"/>
</svg>