<svg xmlns="http://www.w3.org/2000/svg" viewBox="0 0 500 180" width="500" height="180">
  <defs>
    <linearGradient id="bg" x1="0" y1="0" x2="1" y2="1">
      <stop offset="0%" stop-color="rgb(49,31,2)"/>
      <stop offset="50%" stop-color="rgb(73,47,3)"/>
      <stop offset="100%" stop-color="rgb(29,18,1)"/>
    </linearGradient>
    <radialGradient id="glow" cx="50%" cy="50%" r="45%">
      <stop offset="0%" stop-color="#F59E0B" stop-opacity="0.25"/>
      <stop offset="100%" stop-color="#F59E0B" stop-opacity="0"/>
    </radialGradient>
    <filter id="textGlow">
      <feGaussianBlur stdDeviation="3" result="blur"/>
      <feMerge><feMergeNode in="blur"/><feMergeNode in="SourceGraphic"/></feMerge>
    </filter>
  </defs>
  <rect width="500" height="180" fill="url(#bg)"/>
  <rect width="500" height="180" fill="url(#glow)"/>
  <!-- Stars -->
  <circle cx="195" cy="90" r="1.3" fill="white" opacity="0.63"/>
  <circle cx="55" cy="73" r="1.5" fill="white" opacity="0.64"/>
  <circle cx="13" cy="158" r="1.9" fill="white" opacity="0.70"/>
  <circle cx="314" cy="82" r="1.3" fill="white" opacity="0.56"/>
  <circle cx="98" cy="11" r="1.2" fill="white" opacity="0.56"/>
  <circle cx="476" cy="68" r="1.9" fill="white" opacity="0.38"/>
  <circle cx="180" cy="77" r="1.5" fill="white" opacity="0.26"/>
  <circle cx="49" cy="113" r="1.7" fill="white" opacity="0.65"/>
  <circle cx="259" cy="168" r="0.9" fill="white" opacity="0.27"/>
  <circle cx="343" cy="163" r="1.4" fill="white" opacity="0.63"/>
  <circle cx="139" cy="26" r="0.8" fill="white" opacity="0.49"/>
  <circle cx="135" cy="133" r="1.3" fill="white" opacity="0.49"/>
  <circle cx="237" cy="87" r="1.4" fill="white" opacity="0.64"/>
  <circle cx="154" cy="84" r="1.1" fill="white" opacity="0.49"/>
  <circle cx="239" cy="48" r="1.9" fill="white" opacity="0.34"/>
  <circle cx="101" cy="61" r="0.9" fill="white" opacity="0.33"/>
  <circle cx="189" cy="103" r="1.9" fill="white" opacity="0.58"/>
  <circle cx="299" cy="24" r="0.6" fill="white" opacity="0.53"/>
  <circle cx="246" cy="155" r="1.3" fill="white" opacity="0.47"/>
  <circle cx="371" cy="48" r="1.2" fill="white" opacity="0.49"/>
  <circle cx="279" cy="77" r="1.4" fill="white" opacity="0.22"/>
  <circle cx="83" cy="111" r="2.0" fill="white" opacity="0.32"/>
  <circle cx="294" cy="164" r="1.8" fill="white" opacity="0.44"/>
  <circle cx="347" cy="120" r="1.9" fill="white" opacity="0.37"/>
  <circle cx="299" cy="152" r="1.4" fill="white" opacity="0.60"/>
  <!-- Icon -->
  <text x="250" y="58" text-anchor="middle" font-size="48" fill="white" opacity="0.9">👩</text>
  <!-- Title -->
  <text x="250" y="105" text-anchor="middle" font-family="monospace" font-weight="bold" font-size="26" fill="#F59E0B" filter="url(#textGlow)">MS. PAC-MAN</text>
  <!-- Subtitle -->
  <text x="250" y="130" text-anchor="middle" font-family="monospace" font-size="10" fill="white" opacity="0.4">YOUR WORLD ARCADE</text>
  <!-- Accent line -->
  <rect x="170" y="142" width="160" height="1.5" rx="1" fill="#F59E0B" opacity="0.3"/>
</svg>