<svg xmlns="http://www.w3.org/2000/svg" viewBox="0 0 500 180" width="500" height="180">
  <defs>
    <linearGradient id="bg" x1="0" y1="0" x2="1" y2="1">
      <stop offset="0%" stop-color="rgb(49,31,2)"/>
      <stop offset="50%" stop-color="rgb(73,47,3)"/>
      <stop offset="100%" stop-color="rgb(29,18,1)"/>
    </linearGradient>
    <radialGradient id="glow" cx="50%" cy="50%" r="45%">
      <stop offset="0%" stop-color="#F59E0B" stop-opacity="0.25"/>
      <stop offset="100%" stop-color="#F59E0B" stop-opacity="0"/>
    </radialGradient>
    <filter id="textGlow">
      <feGaussianBlur stdDeviation="3" result="blur"/>
      <feMerge><feMergeNode in="blur"/><feMergeNode in="SourceGraphic"/></feMerge>
    </filter>
  </defs>
  <rect width="500" height="180" fill="url(#bg)"/>
  <rect width="500" height="180" fill="url(#glow)"/>
  <!-- Stars -->
  <circle cx="147" cy="127" r="1.4" fill="white" opacity="0.38"/>
  <circle cx="280" cy="100" r="0.8" fill="white" opacity="0.25"/>
  <circle cx="282" cy="107" r="0.9" fill="white" opacity="0.29"/>
  <circle cx="372" cy="97" r="0.6" fill="white" opacity="0.24"/>
  <circle cx="477" cy="94" r="1.4" fill="white" opacity="0.29"/>
  <circle cx="10" cy="20" r="0.9" fill="white" opacity="0.39"/>
  <circle cx="214" cy="20" r="1.4" fill="white" opacity="0.25"/>
  <circle cx="135" cy="14" r="2.0" fill="white" opacity="0.61"/>
  <circle cx="224" cy="144" r="1.3" fill="white" opacity="0.51"/>
  <circle cx="344" cy="106" r="0.5" fill="white" opacity="0.26"/>
  <circle cx="311" cy="53" r="1.9" fill="white" opacity="0.61"/>
  <circle cx="170" cy="49" r="1.7" fill="white" opacity="0.52"/>
  <circle cx="206" cy="134" r="0.9" fill="white" opacity="0.36"/>
  <circle cx="107" cy="50" r="1.0" fill="white" opacity="0.35"/>
  <circle cx="287" cy="54" r="1.9" fill="white" opacity="0.34"/>
  <circle cx="414" cy="146" r="1.6" fill="white" opacity="0.43"/>
  <circle cx="157" cy="44" r="0.7" fill="white" opacity="0.39"/>
  <circle cx="302" cy="64" r="1.6" fill="white" opacity="0.20"/>
  <circle cx="63" cy="49" r="1.8" fill="white" opacity="0.44"/>
  <circle cx="168" cy="18" r="1.6" fill="white" opacity="0.65"/>
  <circle cx="113" cy="118" r="1.2" fill="white" opacity="0.31"/>
  <circle cx="207" cy="40" r="0.5" fill="white" opacity="0.36"/>
  <circle cx="270" cy="31" r="1.3" fill="white" opacity="0.27"/>
  <circle cx="403" cy="58" r="1.5" fill="white" opacity="0.25"/>
  <circle cx="23" cy="69" r="1.5" fill="white" opacity="0.51"/>
  <!-- Icon -->
  <text x="250" y="58" text-anchor="middle" font-size="48" fill="white" opacity="0.9">👻</text>
  <!-- Title -->
  <text x="250" y="105" text-anchor="middle" font-family="monospace" font-weight="bold" font-size="26" fill="#F59E0B" filter="url(#textGlow)">PAC CHASE</text>
  <!-- Subtitle -->
  <text x="250" y="130" text-anchor="middle" font-family="monospace" font-size="10" fill="white" opacity="0.4">YOUR WORLD ARCADE</text>
  <!-- Accent line -->
  <rect x="170" y="142" width="160" height="1.5" rx="1" fill="#F59E0B" opacity="0.3"/>
</svg>