<svg xmlns="http://www.w3.org/2000/svg" viewBox="0 0 500 180" width="500" height="180">
  <defs>
    <linearGradient id="bg" x1="0" y1="0" x2="1" y2="1">
      <stop offset="0%" stop-color="rgb(6,39,18)"/>
      <stop offset="50%" stop-color="rgb(10,59,28)"/>
      <stop offset="100%" stop-color="rgb(4,23,11)"/>
    </linearGradient>
    <radialGradient id="glow" cx="50%" cy="50%" r="45%">
      <stop offset="0%" stop-color="#22C55E" stop-opacity="0.25"/>
      <stop offset="100%" stop-color="#22C55E" stop-opacity="0"/>
    </radialGradient>
    <filter id="textGlow">
      <feGaussianBlur stdDeviation="3" result="blur"/>
      <feMerge><feMergeNode in="blur"/><feMergeNode in="SourceGraphic"/></feMerge>
    </filter>
  </defs>
  <rect width="500" height="180" fill="url(#bg)"/>
  <rect width="500" height="180" fill="url(#glow)"/>
  <!-- Stars -->
  <circle cx="215" cy="25" r="1.2" fill="white" opacity="0.31"/>
  <circle cx="188" cy="97" r="1.3" fill="white" opacity="0.26"/>
  <circle cx="230" cy="10" r="0.7" fill="white" opacity="0.26"/>
  <circle cx="348" cy="120" r="1.3" fill="white" opacity="0.28"/>
  <circle cx="473" cy="57" r="1.1" fill="white" opacity="0.64"/>
  <circle cx="411" cy="108" r="1.7" fill="white" opacity="0.32"/>
  <circle cx="127" cy="167" r="1.8" fill="white" opacity="0.69"/>
  <circle cx="76" cy="96" r="1.4" fill="white" opacity="0.27"/>
  <circle cx="145" cy="61" r="0.8" fill="white" opacity="0.44"/>
  <circle cx="77" cy="28" r="0.8" fill="white" opacity="0.53"/>
  <circle cx="60" cy="98" r="2.0" fill="white" opacity="0.36"/>
  <circle cx="248" cy="14" r="1.6" fill="white" opacity="0.41"/>
  <circle cx="175" cy="157" r="1.6" fill="white" opacity="0.64"/>
  <circle cx="162" cy="146" r="1.6" fill="white" opacity="0.46"/>
  <circle cx="169" cy="96" r="0.9" fill="white" opacity="0.23"/>
  <circle cx="475" cy="40" r="1.0" fill="white" opacity="0.25"/>
  <circle cx="311" cy="102" r="1.8" fill="white" opacity="0.59"/>
  <circle cx="403" cy="165" r="1.9" fill="white" opacity="0.46"/>
  <circle cx="449" cy="72" r="0.5" fill="white" opacity="0.42"/>
  <circle cx="142" cy="79" r="1.4" fill="white" opacity="0.29"/>
  <circle cx="199" cy="96" r="1.9" fill="white" opacity="0.41"/>
  <circle cx="133" cy="135" r="2.0" fill="white" opacity="0.28"/>
  <circle cx="389" cy="91" r="2.0" fill="white" opacity="0.20"/>
  <circle cx="319" cy="140" r="1.7" fill="white" opacity="0.57"/>
  <circle cx="345" cy="28" r="1.1" fill="white" opacity="0.36"/>
  <!-- Icon -->
  <text x="250" y="58" text-anchor="middle" font-size="48" fill="white" opacity="0.9">🏓</text>
  <!-- Title -->
  <text x="250" y="105" text-anchor="middle" font-family="monospace" font-weight="bold" font-size="26" fill="#22C55E" filter="url(#textGlow)">PICKLEBALL</text>
  <!-- Subtitle -->
  <text x="250" y="130" text-anchor="middle" font-family="monospace" font-size="10" fill="white" opacity="0.4">YOUR WORLD ARCADE</text>
  <!-- Accent line -->
  <rect x="170" y="142" width="160" height="1.5" rx="1" fill="#22C55E" opacity="0.3"/>
</svg>