<svg xmlns="http://www.w3.org/2000/svg" viewBox="0 0 500 180" width="500" height="180">
  <defs>
    <linearGradient id="bg" x1="0" y1="0" x2="1" y2="1">
      <stop offset="0%" stop-color="rgb(47,13,13)"/>
      <stop offset="50%" stop-color="rgb(71,20,20)"/>
      <stop offset="100%" stop-color="rgb(28,8,8)"/>
    </linearGradient>
    <radialGradient id="glow" cx="50%" cy="50%" r="45%">
      <stop offset="0%" stop-color="#EF4444" stop-opacity="0.25"/>
      <stop offset="100%" stop-color="#EF4444" stop-opacity="0"/>
    </radialGradient>
    <filter id="textGlow">
      <feGaussianBlur stdDeviation="3" result="blur"/>
      <feMerge><feMergeNode in="blur"/><feMergeNode in="SourceGraphic"/></feMerge>
    </filter>
  </defs>
  <rect width="500" height="180" fill="url(#bg)"/>
  <rect width="500" height="180" fill="url(#glow)"/>
  <!-- Stars -->
  <circle cx="158" cy="29" r="1.9" fill="white" opacity="0.54"/>
  <circle cx="229" cy="110" r="1.8" fill="white" opacity="0.48"/>
  <circle cx="106" cy="27" r="1.2" fill="white" opacity="0.31"/>
  <circle cx="243" cy="68" r="0.7" fill="white" opacity="0.57"/>
  <circle cx="403" cy="73" r="1.4" fill="white" opacity="0.25"/>
  <circle cx="410" cy="111" r="1.3" fill="white" opacity="0.68"/>
  <circle cx="407" cy="44" r="1.0" fill="white" opacity="0.68"/>
  <circle cx="114" cy="150" r="1.7" fill="white" opacity="0.38"/>
  <circle cx="376" cy="101" r="1.2" fill="white" opacity="0.42"/>
  <circle cx="170" cy="98" r="1.2" fill="white" opacity="0.46"/>
  <circle cx="385" cy="121" r="1.2" fill="white" opacity="0.53"/>
  <circle cx="442" cy="49" r="1.4" fill="white" opacity="0.25"/>
  <circle cx="174" cy="48" r="1.7" fill="white" opacity="0.56"/>
  <circle cx="226" cy="60" r="1.5" fill="white" opacity="0.67"/>
  <circle cx="216" cy="156" r="0.6" fill="white" opacity="0.36"/>
  <circle cx="177" cy="109" r="0.9" fill="white" opacity="0.35"/>
  <circle cx="211" cy="43" r="1.6" fill="white" opacity="0.59"/>
  <circle cx="252" cy="76" r="1.7" fill="white" opacity="0.49"/>
  <circle cx="167" cy="128" r="1.0" fill="white" opacity="0.51"/>
  <circle cx="47" cy="102" r="1.9" fill="white" opacity="0.60"/>
  <circle cx="435" cy="128" r="1.4" fill="white" opacity="0.41"/>
  <circle cx="35" cy="15" r="0.9" fill="white" opacity="0.57"/>
  <circle cx="225" cy="63" r="1.6" fill="white" opacity="0.34"/>
  <circle cx="70" cy="106" r="1.3" fill="white" opacity="0.63"/>
  <circle cx="287" cy="43" r="0.7" fill="white" opacity="0.43"/>
  <!-- Icon -->
  <text x="250" y="58" text-anchor="middle" font-size="48" fill="white" opacity="0.9">🏎️</text>
  <!-- Title -->
  <text x="250" y="105" text-anchor="middle" font-family="monospace" font-weight="bold" font-size="26" fill="#EF4444" filter="url(#textGlow)">PIXEL RACER</text>
  <!-- Subtitle -->
  <text x="250" y="130" text-anchor="middle" font-family="monospace" font-size="10" fill="white" opacity="0.4">YOUR WORLD ARCADE</text>
  <!-- Accent line -->
  <rect x="170" y="142" width="160" height="1.5" rx="1" fill="#EF4444" opacity="0.3"/>
</svg>