<svg xmlns="http://www.w3.org/2000/svg" viewBox="0 0 500 180" width="500" height="180">
  <defs>
    <linearGradient id="bg" x1="0" y1="0" x2="1" y2="1">
      <stop offset="0%" stop-color="rgb(47,13,13)"/>
      <stop offset="50%" stop-color="rgb(71,20,20)"/>
      <stop offset="100%" stop-color="rgb(28,8,8)"/>
    </linearGradient>
    <radialGradient id="glow" cx="50%" cy="50%" r="45%">
      <stop offset="0%" stop-color="#EF4444" stop-opacity="0.25"/>
      <stop offset="100%" stop-color="#EF4444" stop-opacity="0"/>
    </radialGradient>
    <filter id="textGlow">
      <feGaussianBlur stdDeviation="3" result="blur"/>
      <feMerge><feMergeNode in="blur"/><feMergeNode in="SourceGraphic"/></feMerge>
    </filter>
  </defs>
  <rect width="500" height="180" fill="url(#bg)"/>
  <rect width="500" height="180" fill="url(#glow)"/>
  <!-- Stars -->
  <circle cx="233" cy="113" r="1.8" fill="white" opacity="0.22"/>
  <circle cx="261" cy="141" r="1.7" fill="white" opacity="0.57"/>
  <circle cx="412" cy="61" r="0.6" fill="white" opacity="0.41"/>
  <circle cx="348" cy="121" r="1.8" fill="white" opacity="0.43"/>
  <circle cx="458" cy="159" r="1.9" fill="white" opacity="0.49"/>
  <circle cx="130" cy="117" r="0.7" fill="white" opacity="0.55"/>
  <circle cx="426" cy="82" r="0.6" fill="white" opacity="0.33"/>
  <circle cx="207" cy="12" r="0.7" fill="white" opacity="0.50"/>
  <circle cx="77" cy="140" r="1.4" fill="white" opacity="0.67"/>
  <circle cx="421" cy="87" r="0.8" fill="white" opacity="0.24"/>
  <circle cx="40" cy="130" r="1.0" fill="white" opacity="0.25"/>
  <circle cx="52" cy="28" r="1.5" fill="white" opacity="0.22"/>
  <circle cx="412" cy="54" r="1.1" fill="white" opacity="0.62"/>
  <circle cx="194" cy="149" r="1.0" fill="white" opacity="0.46"/>
  <circle cx="318" cy="47" r="1.3" fill="white" opacity="0.20"/>
  <circle cx="256" cy="154" r="1.0" fill="white" opacity="0.58"/>
  <circle cx="306" cy="24" r="0.8" fill="white" opacity="0.38"/>
  <circle cx="55" cy="83" r="1.9" fill="white" opacity="0.54"/>
  <circle cx="466" cy="134" r="1.6" fill="white" opacity="0.41"/>
  <circle cx="313" cy="123" r="1.3" fill="white" opacity="0.52"/>
  <circle cx="131" cy="128" r="1.9" fill="white" opacity="0.54"/>
  <circle cx="130" cy="119" r="0.6" fill="white" opacity="0.58"/>
  <circle cx="462" cy="131" r="1.3" fill="white" opacity="0.27"/>
  <circle cx="448" cy="143" r="1.0" fill="white" opacity="0.41"/>
  <circle cx="81" cy="33" r="2.0" fill="white" opacity="0.48"/>
  <!-- Icon -->
  <text x="250" y="58" text-anchor="middle" font-size="48" fill="white" opacity="0.9">🥊</text>
  <!-- Title -->
  <text x="250" y="105" text-anchor="middle" font-family="monospace" font-weight="bold" font-size="26" fill="#EF4444" filter="url(#textGlow)">PIXEL FIGHTER</text>
  <!-- Subtitle -->
  <text x="250" y="130" text-anchor="middle" font-family="monospace" font-size="10" fill="white" opacity="0.4">YOUR WORLD ARCADE</text>
  <!-- Accent line -->
  <rect x="170" y="142" width="160" height="1.5" rx="1" fill="#EF4444" opacity="0.3"/>
</svg>