<svg xmlns="http://www.w3.org/2000/svg" viewBox="0 0 500 180" width="500" height="180">
  <defs>
    <linearGradient id="bg" x1="0" y1="0" x2="1" y2="1">
      <stop offset="0%" stop-color="rgb(6,39,18)"/>
      <stop offset="50%" stop-color="rgb(10,59,28)"/>
      <stop offset="100%" stop-color="rgb(4,23,11)"/>
    </linearGradient>
    <radialGradient id="glow" cx="50%" cy="50%" r="45%">
      <stop offset="0%" stop-color="#22C55E" stop-opacity="0.25"/>
      <stop offset="100%" stop-color="#22C55E" stop-opacity="0"/>
    </radialGradient>
    <filter id="textGlow">
      <feGaussianBlur stdDeviation="3" result="blur"/>
      <feMerge><feMergeNode in="blur"/><feMergeNode in="SourceGraphic"/></feMerge>
    </filter>
  </defs>
  <rect width="500" height="180" fill="url(#bg)"/>
  <rect width="500" height="180" fill="url(#glow)"/>
  <!-- Stars -->
  <circle cx="456" cy="65" r="1.7" fill="white" opacity="0.22"/>
  <circle cx="416" cy="10" r="0.7" fill="white" opacity="0.32"/>
  <circle cx="125" cy="92" r="1.7" fill="white" opacity="0.40"/>
  <circle cx="57" cy="84" r="1.0" fill="white" opacity="0.21"/>
  <circle cx="418" cy="100" r="0.8" fill="white" opacity="0.43"/>
  <circle cx="66" cy="117" r="0.9" fill="white" opacity="0.21"/>
  <circle cx="387" cy="141" r="1.0" fill="white" opacity="0.28"/>
  <circle cx="177" cy="87" r="1.1" fill="white" opacity="0.21"/>
  <circle cx="119" cy="90" r="0.6" fill="white" opacity="0.37"/>
  <circle cx="222" cy="47" r="1.4" fill="white" opacity="0.27"/>
  <circle cx="397" cy="43" r="2.0" fill="white" opacity="0.40"/>
  <circle cx="489" cy="142" r="1.2" fill="white" opacity="0.67"/>
  <circle cx="446" cy="62" r="0.6" fill="white" opacity="0.53"/>
  <circle cx="391" cy="120" r="0.8" fill="white" opacity="0.23"/>
  <circle cx="330" cy="70" r="1.6" fill="white" opacity="0.48"/>
  <circle cx="93" cy="153" r="1.5" fill="white" opacity="0.25"/>
  <circle cx="362" cy="28" r="0.6" fill="white" opacity="0.35"/>
  <circle cx="53" cy="58" r="1.1" fill="white" opacity="0.45"/>
  <circle cx="254" cy="105" r="1.9" fill="white" opacity="0.43"/>
  <circle cx="248" cy="106" r="1.4" fill="white" opacity="0.45"/>
  <circle cx="388" cy="143" r="1.3" fill="white" opacity="0.30"/>
  <circle cx="96" cy="65" r="1.0" fill="white" opacity="0.37"/>
  <circle cx="214" cy="111" r="0.6" fill="white" opacity="0.46"/>
  <circle cx="235" cy="36" r="0.9" fill="white" opacity="0.28"/>
  <circle cx="430" cy="79" r="1.5" fill="white" opacity="0.30"/>
  <!-- Icon -->
  <text x="250" y="58" text-anchor="middle" font-size="48" fill="white" opacity="0.9">🎱</text>
  <!-- Title -->
  <text x="250" y="105" text-anchor="middle" font-family="monospace" font-weight="bold" font-size="26" fill="#22C55E" filter="url(#textGlow)">8-BALL POOL</text>
  <!-- Subtitle -->
  <text x="250" y="130" text-anchor="middle" font-family="monospace" font-size="10" fill="white" opacity="0.4">YOUR WORLD ARCADE</text>
  <!-- Accent line -->
  <rect x="170" y="142" width="160" height="1.5" rx="1" fill="#22C55E" opacity="0.3"/>
</svg>