<svg xmlns="http://www.w3.org/2000/svg" viewBox="0 0 500 180" width="500" height="180">
  <defs>
    <linearGradient id="bg" x1="0" y1="0" x2="1" y2="1">
      <stop offset="0%" stop-color="rgb(47,14,30)"/>
      <stop offset="50%" stop-color="rgb(70,21,45)"/>
      <stop offset="100%" stop-color="rgb(28,8,18)"/>
    </linearGradient>
    <radialGradient id="glow" cx="50%" cy="50%" r="45%">
      <stop offset="0%" stop-color="#EC4899" stop-opacity="0.25"/>
      <stop offset="100%" stop-color="#EC4899" stop-opacity="0"/>
    </radialGradient>
    <filter id="textGlow">
      <feGaussianBlur stdDeviation="3" result="blur"/>
      <feMerge><feMergeNode in="blur"/><feMergeNode in="SourceGraphic"/></feMerge>
    </filter>
  </defs>
  <rect width="500" height="180" fill="url(#bg)"/>
  <rect width="500" height="180" fill="url(#glow)"/>
  <!-- Stars -->
  <circle cx="372" cy="10" r="1.0" fill="white" opacity="0.33"/>
  <circle cx="306" cy="79" r="0.5" fill="white" opacity="0.55"/>
  <circle cx="214" cy="29" r="0.9" fill="white" opacity="0.30"/>
  <circle cx="420" cy="147" r="1.4" fill="white" opacity="0.25"/>
  <circle cx="273" cy="139" r="1.6" fill="white" opacity="0.21"/>
  <circle cx="289" cy="148" r="1.5" fill="white" opacity="0.57"/>
  <circle cx="143" cy="50" r="1.6" fill="white" opacity="0.38"/>
  <circle cx="41" cy="126" r="1.7" fill="white" opacity="0.47"/>
  <circle cx="66" cy="105" r="1.6" fill="white" opacity="0.27"/>
  <circle cx="120" cy="18" r="0.7" fill="white" opacity="0.46"/>
  <circle cx="245" cy="149" r="1.7" fill="white" opacity="0.41"/>
  <circle cx="123" cy="20" r="1.0" fill="white" opacity="0.58"/>
  <circle cx="270" cy="74" r="1.8" fill="white" opacity="0.24"/>
  <circle cx="276" cy="53" r="2.0" fill="white" opacity="0.52"/>
  <circle cx="22" cy="159" r="0.7" fill="white" opacity="0.38"/>
  <circle cx="98" cy="35" r="1.4" fill="white" opacity="0.57"/>
  <circle cx="386" cy="81" r="1.6" fill="white" opacity="0.24"/>
  <circle cx="161" cy="117" r="0.9" fill="white" opacity="0.36"/>
  <circle cx="310" cy="166" r="1.7" fill="white" opacity="0.49"/>
  <circle cx="132" cy="145" r="0.9" fill="white" opacity="0.69"/>
  <circle cx="444" cy="116" r="1.0" fill="white" opacity="0.26"/>
  <circle cx="433" cy="162" r="1.1" fill="white" opacity="0.60"/>
  <circle cx="103" cy="79" r="0.9" fill="white" opacity="0.58"/>
  <circle cx="62" cy="44" r="0.9" fill="white" opacity="0.39"/>
  <circle cx="270" cy="72" r="1.1" fill="white" opacity="0.54"/>
  <!-- Icon -->
  <text x="250" y="58" text-anchor="middle" font-size="48" fill="white" opacity="0.9">👸</text>
  <!-- Title -->
  <text x="250" y="105" text-anchor="middle" font-family="monospace" font-weight="bold" font-size="26" fill="#EC4899" filter="url(#textGlow)">PRINCESS RUN</text>
  <!-- Subtitle -->
  <text x="250" y="130" text-anchor="middle" font-family="monospace" font-size="10" fill="white" opacity="0.4">YOUR WORLD ARCADE</text>
  <!-- Accent line -->
  <rect x="170" y="142" width="160" height="1.5" rx="1" fill="#EC4899" opacity="0.3"/>
</svg>