<svg xmlns="http://www.w3.org/2000/svg" viewBox="0 0 500 180" width="500" height="180">
  <defs>
    <linearGradient id="bg" x1="0" y1="0" x2="1" y2="1">
      <stop offset="0%" stop-color="rgb(33,17,49)"/>
      <stop offset="50%" stop-color="rgb(50,25,74)"/>
      <stop offset="100%" stop-color="rgb(20,10,29)"/>
    </linearGradient>
    <radialGradient id="glow" cx="50%" cy="50%" r="45%">
      <stop offset="0%" stop-color="#A855F7" stop-opacity="0.25"/>
      <stop offset="100%" stop-color="#A855F7" stop-opacity="0"/>
    </radialGradient>
    <filter id="textGlow">
      <feGaussianBlur stdDeviation="3" result="blur"/>
      <feMerge><feMergeNode in="blur"/><feMergeNode in="SourceGraphic"/></feMerge>
    </filter>
  </defs>
  <rect width="500" height="180" fill="url(#bg)"/>
  <rect width="500" height="180" fill="url(#glow)"/>
  <!-- Stars -->
  <circle cx="257" cy="132" r="0.6" fill="white" opacity="0.38"/>
  <circle cx="52" cy="140" r="1.8" fill="white" opacity="0.64"/>
  <circle cx="216" cy="122" r="1.1" fill="white" opacity="0.40"/>
  <circle cx="442" cy="165" r="1.0" fill="white" opacity="0.29"/>
  <circle cx="139" cy="97" r="0.8" fill="white" opacity="0.30"/>
  <circle cx="132" cy="21" r="2.0" fill="white" opacity="0.56"/>
  <circle cx="219" cy="110" r="1.3" fill="white" opacity="0.25"/>
  <circle cx="371" cy="97" r="1.6" fill="white" opacity="0.57"/>
  <circle cx="382" cy="93" r="0.8" fill="white" opacity="0.40"/>
  <circle cx="217" cy="97" r="1.6" fill="white" opacity="0.58"/>
  <circle cx="136" cy="56" r="1.1" fill="white" opacity="0.50"/>
  <circle cx="147" cy="34" r="0.7" fill="white" opacity="0.62"/>
  <circle cx="68" cy="68" r="0.9" fill="white" opacity="0.35"/>
  <circle cx="254" cy="131" r="0.6" fill="white" opacity="0.44"/>
  <circle cx="322" cy="97" r="1.1" fill="white" opacity="0.24"/>
  <circle cx="107" cy="29" r="1.0" fill="white" opacity="0.27"/>
  <circle cx="279" cy="10" r="1.8" fill="white" opacity="0.36"/>
  <circle cx="270" cy="67" r="1.1" fill="white" opacity="0.62"/>
  <circle cx="348" cy="62" r="0.7" fill="white" opacity="0.40"/>
  <circle cx="294" cy="127" r="1.5" fill="white" opacity="0.60"/>
  <circle cx="187" cy="160" r="1.2" fill="white" opacity="0.62"/>
  <circle cx="436" cy="94" r="1.4" fill="white" opacity="0.39"/>
  <circle cx="389" cy="75" r="0.9" fill="white" opacity="0.70"/>
  <circle cx="377" cy="71" r="1.1" fill="white" opacity="0.48"/>
  <circle cx="417" cy="168" r="0.6" fill="white" opacity="0.55"/>
  <!-- Icon -->
  <text x="250" y="58" text-anchor="middle" font-size="48" fill="white" opacity="0.9">🎯</text>
  <!-- Title -->
  <text x="250" y="105" text-anchor="middle" font-family="monospace" font-weight="bold" font-size="26" fill="#A855F7" filter="url(#textGlow)">QIX</text>
  <!-- Subtitle -->
  <text x="250" y="130" text-anchor="middle" font-family="monospace" font-size="10" fill="white" opacity="0.4">YOUR WORLD ARCADE</text>
  <!-- Accent line -->
  <rect x="170" y="142" width="160" height="1.5" rx="1" fill="#A855F7" opacity="0.3"/>
</svg>