<svg xmlns="http://www.w3.org/2000/svg" viewBox="0 0 500 180" width="500" height="180">
  <defs>
    <linearGradient id="bg" x1="0" y1="0" x2="1" y2="1">
      <stop offset="0%" stop-color="rgb(6,39,18)"/>
      <stop offset="50%" stop-color="rgb(10,59,28)"/>
      <stop offset="100%" stop-color="rgb(4,23,11)"/>
    </linearGradient>
    <radialGradient id="glow" cx="50%" cy="50%" r="45%">
      <stop offset="0%" stop-color="#22C55E" stop-opacity="0.25"/>
      <stop offset="100%" stop-color="#22C55E" stop-opacity="0"/>
    </radialGradient>
    <filter id="textGlow">
      <feGaussianBlur stdDeviation="3" result="blur"/>
      <feMerge><feMergeNode in="blur"/><feMergeNode in="SourceGraphic"/></feMerge>
    </filter>
  </defs>
  <rect width="500" height="180" fill="url(#bg)"/>
  <rect width="500" height="180" fill="url(#glow)"/>
  <!-- Stars -->
  <circle cx="429" cy="91" r="1.0" fill="white" opacity="0.60"/>
  <circle cx="443" cy="112" r="1.4" fill="white" opacity="0.39"/>
  <circle cx="32" cy="147" r="1.4" fill="white" opacity="0.62"/>
  <circle cx="184" cy="59" r="1.2" fill="white" opacity="0.29"/>
  <circle cx="371" cy="118" r="1.2" fill="white" opacity="0.28"/>
  <circle cx="166" cy="152" r="1.0" fill="white" opacity="0.60"/>
  <circle cx="96" cy="131" r="1.7" fill="white" opacity="0.36"/>
  <circle cx="235" cy="47" r="1.5" fill="white" opacity="0.44"/>
  <circle cx="476" cy="73" r="0.5" fill="white" opacity="0.39"/>
  <circle cx="470" cy="138" r="0.9" fill="white" opacity="0.50"/>
  <circle cx="202" cy="111" r="0.9" fill="white" opacity="0.61"/>
  <circle cx="273" cy="158" r="1.4" fill="white" opacity="0.54"/>
  <circle cx="432" cy="19" r="1.3" fill="white" opacity="0.57"/>
  <circle cx="436" cy="146" r="1.0" fill="white" opacity="0.28"/>
  <circle cx="320" cy="32" r="1.1" fill="white" opacity="0.40"/>
  <circle cx="187" cy="37" r="1.2" fill="white" opacity="0.41"/>
  <circle cx="382" cy="31" r="0.8" fill="white" opacity="0.46"/>
  <circle cx="286" cy="138" r="0.7" fill="white" opacity="0.47"/>
  <circle cx="344" cy="37" r="0.5" fill="white" opacity="0.54"/>
  <circle cx="24" cy="10" r="0.9" fill="white" opacity="0.29"/>
  <circle cx="189" cy="72" r="0.7" fill="white" opacity="0.37"/>
  <circle cx="385" cy="133" r="1.2" fill="white" opacity="0.50"/>
  <circle cx="335" cy="116" r="1.9" fill="white" opacity="0.23"/>
  <circle cx="53" cy="42" r="1.5" fill="white" opacity="0.38"/>
  <circle cx="76" cy="123" r="1.3" fill="white" opacity="0.46"/>
  <!-- Icon -->
  <text x="250" y="58" text-anchor="middle" font-size="48" fill="white" opacity="0.9">🔫</text>
  <!-- Title -->
  <text x="250" y="105" text-anchor="middle" font-family="monospace" font-weight="bold" font-size="26" fill="#22C55E" filter="url(#textGlow)">RAIL BLASTER</text>
  <!-- Subtitle -->
  <text x="250" y="130" text-anchor="middle" font-family="monospace" font-size="10" fill="white" opacity="0.4">YOUR WORLD ARCADE</text>
  <!-- Accent line -->
  <rect x="170" y="142" width="160" height="1.5" rx="1" fill="#22C55E" opacity="0.3"/>
</svg>