<svg xmlns="http://www.w3.org/2000/svg" viewBox="0 0 500 180" width="500" height="180">
  <defs>
    <linearGradient id="bg" x1="0" y1="0" x2="1" y2="1">
      <stop offset="0%" stop-color="rgb(47,14,30)"/>
      <stop offset="50%" stop-color="rgb(70,21,45)"/>
      <stop offset="100%" stop-color="rgb(28,8,18)"/>
    </linearGradient>
    <radialGradient id="glow" cx="50%" cy="50%" r="45%">
      <stop offset="0%" stop-color="#EC4899" stop-opacity="0.25"/>
      <stop offset="100%" stop-color="#EC4899" stop-opacity="0"/>
    </radialGradient>
    <filter id="textGlow">
      <feGaussianBlur stdDeviation="3" result="blur"/>
      <feMerge><feMergeNode in="blur"/><feMergeNode in="SourceGraphic"/></feMerge>
    </filter>
  </defs>
  <rect width="500" height="180" fill="url(#bg)"/>
  <rect width="500" height="180" fill="url(#glow)"/>
  <!-- Stars -->
  <circle cx="455" cy="24" r="1.5" fill="white" opacity="0.46"/>
  <circle cx="166" cy="163" r="1.1" fill="white" opacity="0.43"/>
  <circle cx="395" cy="121" r="1.3" fill="white" opacity="0.58"/>
  <circle cx="101" cy="77" r="1.0" fill="white" opacity="0.41"/>
  <circle cx="163" cy="161" r="1.8" fill="white" opacity="0.32"/>
  <circle cx="240" cy="105" r="1.0" fill="white" opacity="0.52"/>
  <circle cx="215" cy="155" r="2.0" fill="white" opacity="0.25"/>
  <circle cx="45" cy="97" r="1.9" fill="white" opacity="0.59"/>
  <circle cx="329" cy="34" r="1.1" fill="white" opacity="0.22"/>
  <circle cx="485" cy="146" r="0.9" fill="white" opacity="0.62"/>
  <circle cx="358" cy="16" r="1.3" fill="white" opacity="0.47"/>
  <circle cx="92" cy="122" r="1.5" fill="white" opacity="0.27"/>
  <circle cx="41" cy="150" r="1.5" fill="white" opacity="0.20"/>
  <circle cx="223" cy="68" r="0.6" fill="white" opacity="0.52"/>
  <circle cx="138" cy="28" r="1.8" fill="white" opacity="0.37"/>
  <circle cx="425" cy="111" r="1.2" fill="white" opacity="0.60"/>
  <circle cx="282" cy="107" r="1.5" fill="white" opacity="0.25"/>
  <circle cx="116" cy="40" r="1.7" fill="white" opacity="0.58"/>
  <circle cx="149" cy="124" r="1.3" fill="white" opacity="0.25"/>
  <circle cx="104" cy="93" r="1.7" fill="white" opacity="0.26"/>
  <circle cx="45" cy="50" r="1.1" fill="white" opacity="0.51"/>
  <circle cx="307" cy="91" r="2.0" fill="white" opacity="0.39"/>
  <circle cx="154" cy="126" r="0.9" fill="white" opacity="0.51"/>
  <circle cx="107" cy="145" r="1.8" fill="white" opacity="0.28"/>
  <circle cx="372" cy="89" r="1.9" fill="white" opacity="0.57"/>
  <!-- Icon -->
  <text x="250" y="58" text-anchor="middle" font-size="48" fill="white" opacity="0.9">🎵</text>
  <!-- Title -->
  <text x="250" y="105" text-anchor="middle" font-family="monospace" font-weight="bold" font-size="26" fill="#EC4899" filter="url(#textGlow)">RHYTHM TAP</text>
  <!-- Subtitle -->
  <text x="250" y="130" text-anchor="middle" font-family="monospace" font-size="10" fill="white" opacity="0.4">YOUR WORLD ARCADE</text>
  <!-- Accent line -->
  <rect x="170" y="142" width="160" height="1.5" rx="1" fill="#EC4899" opacity="0.3"/>
</svg>