<svg xmlns="http://www.w3.org/2000/svg" viewBox="0 0 500 180" width="500" height="180">
  <defs>
    <linearGradient id="bg" x1="0" y1="0" x2="1" y2="1">
      <stop offset="0%" stop-color="rgb(49,31,2)"/>
      <stop offset="50%" stop-color="rgb(73,47,3)"/>
      <stop offset="100%" stop-color="rgb(29,18,1)"/>
    </linearGradient>
    <radialGradient id="glow" cx="50%" cy="50%" r="45%">
      <stop offset="0%" stop-color="#F59E0B" stop-opacity="0.25"/>
      <stop offset="100%" stop-color="#F59E0B" stop-opacity="0"/>
    </radialGradient>
    <filter id="textGlow">
      <feGaussianBlur stdDeviation="3" result="blur"/>
      <feMerge><feMergeNode in="blur"/><feMergeNode in="SourceGraphic"/></feMerge>
    </filter>
  </defs>
  <rect width="500" height="180" fill="url(#bg)"/>
  <rect width="500" height="180" fill="url(#glow)"/>
  <!-- Stars -->
  <circle cx="117" cy="74" r="1.5" fill="white" opacity="0.27"/>
  <circle cx="239" cy="45" r="1.6" fill="white" opacity="0.57"/>
  <circle cx="297" cy="133" r="1.1" fill="white" opacity="0.54"/>
  <circle cx="214" cy="167" r="1.6" fill="white" opacity="0.33"/>
  <circle cx="242" cy="163" r="1.5" fill="white" opacity="0.33"/>
  <circle cx="327" cy="115" r="1.4" fill="white" opacity="0.24"/>
  <circle cx="442" cy="34" r="0.6" fill="white" opacity="0.64"/>
  <circle cx="114" cy="26" r="1.3" fill="white" opacity="0.43"/>
  <circle cx="185" cy="102" r="1.5" fill="white" opacity="0.62"/>
  <circle cx="238" cy="85" r="0.7" fill="white" opacity="0.50"/>
  <circle cx="340" cy="138" r="1.1" fill="white" opacity="0.22"/>
  <circle cx="348" cy="146" r="1.7" fill="white" opacity="0.30"/>
  <circle cx="19" cy="164" r="1.1" fill="white" opacity="0.64"/>
  <circle cx="282" cy="34" r="1.5" fill="white" opacity="0.25"/>
  <circle cx="346" cy="51" r="1.7" fill="white" opacity="0.34"/>
  <circle cx="298" cy="60" r="1.6" fill="white" opacity="0.52"/>
  <circle cx="74" cy="85" r="1.9" fill="white" opacity="0.45"/>
  <circle cx="160" cy="81" r="1.0" fill="white" opacity="0.47"/>
  <circle cx="374" cy="131" r="0.8" fill="white" opacity="0.38"/>
  <circle cx="17" cy="13" r="1.2" fill="white" opacity="0.66"/>
  <circle cx="391" cy="95" r="1.0" fill="white" opacity="0.42"/>
  <circle cx="128" cy="24" r="1.4" fill="white" opacity="0.54"/>
  <circle cx="268" cy="125" r="2.0" fill="white" opacity="0.51"/>
  <circle cx="371" cy="108" r="0.8" fill="white" opacity="0.25"/>
  <circle cx="196" cy="168" r="0.6" fill="white" opacity="0.48"/>
  <!-- Icon -->
  <text x="250" y="58" text-anchor="middle" font-size="48" fill="white" opacity="0.9">⚙️</text>
  <!-- Title -->
  <text x="250" y="105" text-anchor="middle" font-family="monospace" font-weight="bold" font-size="26" fill="#F59E0B" filter="url(#textGlow)">RUBE GOLDBERG</text>
  <!-- Subtitle -->
  <text x="250" y="130" text-anchor="middle" font-family="monospace" font-size="10" fill="white" opacity="0.4">YOUR WORLD ARCADE</text>
  <!-- Accent line -->
  <rect x="170" y="142" width="160" height="1.5" rx="1" fill="#F59E0B" opacity="0.3"/>
</svg>