<svg xmlns="http://www.w3.org/2000/svg" viewBox="0 0 500 180" width="500" height="180">
  <defs>
    <linearGradient id="bg" x1="0" y1="0" x2="1" y2="1">
      <stop offset="0%" stop-color="rgb(49,31,2)"/>
      <stop offset="50%" stop-color="rgb(73,47,3)"/>
      <stop offset="100%" stop-color="rgb(29,18,1)"/>
    </linearGradient>
    <radialGradient id="glow" cx="50%" cy="50%" r="45%">
      <stop offset="0%" stop-color="#F59E0B" stop-opacity="0.25"/>
      <stop offset="100%" stop-color="#F59E0B" stop-opacity="0"/>
    </radialGradient>
    <filter id="textGlow">
      <feGaussianBlur stdDeviation="3" result="blur"/>
      <feMerge><feMergeNode in="blur"/><feMergeNode in="SourceGraphic"/></feMerge>
    </filter>
  </defs>
  <rect width="500" height="180" fill="url(#bg)"/>
  <rect width="500" height="180" fill="url(#glow)"/>
  <!-- Stars -->
  <circle cx="312" cy="102" r="1.3" fill="white" opacity="0.44"/>
  <circle cx="222" cy="125" r="0.9" fill="white" opacity="0.54"/>
  <circle cx="10" cy="63" r="1.3" fill="white" opacity="0.63"/>
  <circle cx="457" cy="113" r="0.7" fill="white" opacity="0.38"/>
  <circle cx="269" cy="50" r="1.2" fill="white" opacity="0.50"/>
  <circle cx="468" cy="108" r="1.2" fill="white" opacity="0.67"/>
  <circle cx="401" cy="84" r="0.6" fill="white" opacity="0.53"/>
  <circle cx="479" cy="48" r="0.6" fill="white" opacity="0.41"/>
  <circle cx="180" cy="80" r="1.6" fill="white" opacity="0.41"/>
  <circle cx="142" cy="67" r="1.4" fill="white" opacity="0.38"/>
  <circle cx="223" cy="166" r="1.2" fill="white" opacity="0.46"/>
  <circle cx="355" cy="45" r="0.6" fill="white" opacity="0.45"/>
  <circle cx="72" cy="34" r="1.0" fill="white" opacity="0.32"/>
  <circle cx="347" cy="105" r="0.7" fill="white" opacity="0.65"/>
  <circle cx="163" cy="39" r="1.5" fill="white" opacity="0.55"/>
  <circle cx="424" cy="89" r="1.8" fill="white" opacity="0.37"/>
  <circle cx="359" cy="56" r="1.4" fill="white" opacity="0.69"/>
  <circle cx="417" cy="22" r="1.7" fill="white" opacity="0.42"/>
  <circle cx="189" cy="117" r="1.2" fill="white" opacity="0.49"/>
  <circle cx="65" cy="114" r="1.9" fill="white" opacity="0.65"/>
  <circle cx="219" cy="152" r="1.1" fill="white" opacity="0.63"/>
  <circle cx="312" cy="98" r="1.8" fill="white" opacity="0.59"/>
  <circle cx="200" cy="55" r="0.7" fill="white" opacity="0.45"/>
  <circle cx="328" cy="166" r="1.2" fill="white" opacity="0.24"/>
  <circle cx="464" cy="99" r="0.6" fill="white" opacity="0.45"/>
  <!-- Icon -->
  <text x="250" y="58" text-anchor="middle" font-size="48" fill="white" opacity="0.9">🟠</text>
  <!-- Title -->
  <text x="250" y="105" text-anchor="middle" font-family="monospace" font-weight="bold" font-size="26" fill="#F59E0B" filter="url(#textGlow)">SAVE KENNY</text>
  <!-- Subtitle -->
  <text x="250" y="130" text-anchor="middle" font-family="monospace" font-size="10" fill="white" opacity="0.4">YOUR WORLD ARCADE</text>
  <!-- Accent line -->
  <rect x="170" y="142" width="160" height="1.5" rx="1" fill="#F59E0B" opacity="0.3"/>
</svg>