<svg xmlns="http://www.w3.org/2000/svg" viewBox="0 0 500 180" width="500" height="180">
  <defs>
    <linearGradient id="bg" x1="0" y1="0" x2="1" y2="1">
      <stop offset="0%" stop-color="rgb(47,13,13)"/>
      <stop offset="50%" stop-color="rgb(71,20,20)"/>
      <stop offset="100%" stop-color="rgb(28,8,8)"/>
    </linearGradient>
    <radialGradient id="glow" cx="50%" cy="50%" r="45%">
      <stop offset="0%" stop-color="#EF4444" stop-opacity="0.25"/>
      <stop offset="100%" stop-color="#EF4444" stop-opacity="0"/>
    </radialGradient>
    <filter id="textGlow">
      <feGaussianBlur stdDeviation="3" result="blur"/>
      <feMerge><feMergeNode in="blur"/><feMergeNode in="SourceGraphic"/></feMerge>
    </filter>
  </defs>
  <rect width="500" height="180" fill="url(#bg)"/>
  <rect width="500" height="180" fill="url(#glow)"/>
  <!-- Stars -->
  <circle cx="461" cy="92" r="0.8" fill="white" opacity="0.24"/>
  <circle cx="337" cy="32" r="1.8" fill="white" opacity="0.22"/>
  <circle cx="444" cy="153" r="1.7" fill="white" opacity="0.66"/>
  <circle cx="49" cy="88" r="1.8" fill="white" opacity="0.44"/>
  <circle cx="324" cy="116" r="0.7" fill="white" opacity="0.59"/>
  <circle cx="482" cy="127" r="0.9" fill="white" opacity="0.24"/>
  <circle cx="229" cy="35" r="1.8" fill="white" opacity="0.21"/>
  <circle cx="333" cy="52" r="1.5" fill="white" opacity="0.20"/>
  <circle cx="456" cy="112" r="1.8" fill="white" opacity="0.54"/>
  <circle cx="283" cy="151" r="1.2" fill="white" opacity="0.70"/>
  <circle cx="462" cy="36" r="1.0" fill="white" opacity="0.26"/>
  <circle cx="193" cy="37" r="2.0" fill="white" opacity="0.56"/>
  <circle cx="373" cy="102" r="1.0" fill="white" opacity="0.56"/>
  <circle cx="222" cy="88" r="1.8" fill="white" opacity="0.42"/>
  <circle cx="147" cy="123" r="0.5" fill="white" opacity="0.33"/>
  <circle cx="349" cy="68" r="0.8" fill="white" opacity="0.31"/>
  <circle cx="110" cy="87" r="1.4" fill="white" opacity="0.39"/>
  <circle cx="325" cy="113" r="1.6" fill="white" opacity="0.34"/>
  <circle cx="14" cy="155" r="0.7" fill="white" opacity="0.67"/>
  <circle cx="394" cy="157" r="1.6" fill="white" opacity="0.57"/>
  <circle cx="200" cy="96" r="1.0" fill="white" opacity="0.27"/>
  <circle cx="380" cy="19" r="1.5" fill="white" opacity="0.28"/>
  <circle cx="390" cy="82" r="1.2" fill="white" opacity="0.63"/>
  <circle cx="277" cy="146" r="0.8" fill="white" opacity="0.58"/>
  <circle cx="116" cy="10" r="1.3" fill="white" opacity="0.38"/>
  <!-- Icon -->
  <text x="250" y="58" text-anchor="middle" font-size="48" fill="white" opacity="0.9">🏹</text>
  <!-- Title -->
  <text x="250" y="105" text-anchor="middle" font-family="monospace" font-weight="bold" font-size="26" fill="#EF4444" filter="url(#textGlow)">SLINGSHOT</text>
  <!-- Subtitle -->
  <text x="250" y="130" text-anchor="middle" font-family="monospace" font-size="10" fill="white" opacity="0.4">YOUR WORLD ARCADE</text>
  <!-- Accent line -->
  <rect x="170" y="142" width="160" height="1.5" rx="1" fill="#EF4444" opacity="0.3"/>
</svg>