<svg xmlns="http://www.w3.org/2000/svg" viewBox="0 0 500 180" width="500" height="180">
  <defs>
    <linearGradient id="bg" x1="0" y1="0" x2="1" y2="1">
      <stop offset="0%" stop-color="rgb(33,17,49)"/>
      <stop offset="50%" stop-color="rgb(50,25,74)"/>
      <stop offset="100%" stop-color="rgb(20,10,29)"/>
    </linearGradient>
    <radialGradient id="glow" cx="50%" cy="50%" r="45%">
      <stop offset="0%" stop-color="#A855F7" stop-opacity="0.25"/>
      <stop offset="100%" stop-color="#A855F7" stop-opacity="0"/>
    </radialGradient>
    <filter id="textGlow">
      <feGaussianBlur stdDeviation="3" result="blur"/>
      <feMerge><feMergeNode in="blur"/><feMergeNode in="SourceGraphic"/></feMerge>
    </filter>
  </defs>
  <rect width="500" height="180" fill="url(#bg)"/>
  <rect width="500" height="180" fill="url(#glow)"/>
  <!-- Stars -->
  <circle cx="44" cy="54" r="1.7" fill="white" opacity="0.50"/>
  <circle cx="54" cy="18" r="0.8" fill="white" opacity="0.23"/>
  <circle cx="55" cy="122" r="1.0" fill="white" opacity="0.20"/>
  <circle cx="419" cy="37" r="0.9" fill="white" opacity="0.46"/>
  <circle cx="236" cy="37" r="1.8" fill="white" opacity="0.60"/>
  <circle cx="415" cy="142" r="1.9" fill="white" opacity="0.49"/>
  <circle cx="292" cy="130" r="1.3" fill="white" opacity="0.46"/>
  <circle cx="361" cy="46" r="1.5" fill="white" opacity="0.55"/>
  <circle cx="424" cy="92" r="1.3" fill="white" opacity="0.70"/>
  <circle cx="478" cy="90" r="1.9" fill="white" opacity="0.28"/>
  <circle cx="372" cy="25" r="0.8" fill="white" opacity="0.38"/>
  <circle cx="58" cy="58" r="1.2" fill="white" opacity="0.64"/>
  <circle cx="382" cy="16" r="1.1" fill="white" opacity="0.40"/>
  <circle cx="238" cy="127" r="0.9" fill="white" opacity="0.44"/>
  <circle cx="460" cy="72" r="1.5" fill="white" opacity="0.42"/>
  <circle cx="458" cy="33" r="1.7" fill="white" opacity="0.64"/>
  <circle cx="352" cy="97" r="0.6" fill="white" opacity="0.62"/>
  <circle cx="345" cy="127" r="1.7" fill="white" opacity="0.57"/>
  <circle cx="310" cy="115" r="1.6" fill="white" opacity="0.33"/>
  <circle cx="330" cy="112" r="0.6" fill="white" opacity="0.28"/>
  <circle cx="258" cy="159" r="1.6" fill="white" opacity="0.46"/>
  <circle cx="70" cy="67" r="0.8" fill="white" opacity="0.35"/>
  <circle cx="211" cy="110" r="1.0" fill="white" opacity="0.38"/>
  <circle cx="232" cy="64" r="1.1" fill="white" opacity="0.67"/>
  <circle cx="212" cy="124" r="1.4" fill="white" opacity="0.31"/>
  <!-- Icon -->
  <text x="250" y="58" text-anchor="middle" font-size="48" fill="white" opacity="0.9">👾</text>
  <!-- Title -->
  <text x="250" y="105" text-anchor="middle" font-family="monospace" font-weight="bold" font-size="26" fill="#A855F7" filter="url(#textGlow)">SPACE INVADERS</text>
  <!-- Subtitle -->
  <text x="250" y="130" text-anchor="middle" font-family="monospace" font-size="10" fill="white" opacity="0.4">YOUR WORLD ARCADE</text>
  <!-- Accent line -->
  <rect x="170" y="142" width="160" height="1.5" rx="1" fill="#A855F7" opacity="0.3"/>
</svg>