<svg xmlns="http://www.w3.org/2000/svg" viewBox="0 0 500 180" width="500" height="180">
  <defs>
    <linearGradient id="bg" x1="0" y1="0" x2="1" y2="1">
      <stop offset="0%" stop-color="rgb(33,17,49)"/>
      <stop offset="50%" stop-color="rgb(50,25,74)"/>
      <stop offset="100%" stop-color="rgb(20,10,29)"/>
    </linearGradient>
    <radialGradient id="glow" cx="50%" cy="50%" r="45%">
      <stop offset="0%" stop-color="#A855F7" stop-opacity="0.25"/>
      <stop offset="100%" stop-color="#A855F7" stop-opacity="0"/>
    </radialGradient>
    <filter id="textGlow">
      <feGaussianBlur stdDeviation="3" result="blur"/>
      <feMerge><feMergeNode in="blur"/><feMergeNode in="SourceGraphic"/></feMerge>
    </filter>
  </defs>
  <rect width="500" height="180" fill="url(#bg)"/>
  <rect width="500" height="180" fill="url(#glow)"/>
  <!-- Stars -->
  <circle cx="58" cy="71" r="1.9" fill="white" opacity="0.57"/>
  <circle cx="120" cy="126" r="1.7" fill="white" opacity="0.31"/>
  <circle cx="185" cy="126" r="1.0" fill="white" opacity="0.35"/>
  <circle cx="269" cy="23" r="0.7" fill="white" opacity="0.36"/>
  <circle cx="422" cy="168" r="1.5" fill="white" opacity="0.24"/>
  <circle cx="345" cy="109" r="1.9" fill="white" opacity="0.28"/>
  <circle cx="54" cy="90" r="1.3" fill="white" opacity="0.22"/>
  <circle cx="437" cy="101" r="1.6" fill="white" opacity="0.49"/>
  <circle cx="238" cy="52" r="1.6" fill="white" opacity="0.54"/>
  <circle cx="216" cy="105" r="1.7" fill="white" opacity="0.44"/>
  <circle cx="125" cy="111" r="1.2" fill="white" opacity="0.31"/>
  <circle cx="467" cy="74" r="1.2" fill="white" opacity="0.56"/>
  <circle cx="348" cy="13" r="1.2" fill="white" opacity="0.45"/>
  <circle cx="82" cy="57" r="0.9" fill="white" opacity="0.49"/>
  <circle cx="96" cy="131" r="0.7" fill="white" opacity="0.29"/>
  <circle cx="257" cy="160" r="1.5" fill="white" opacity="0.36"/>
  <circle cx="67" cy="169" r="1.8" fill="white" opacity="0.61"/>
  <circle cx="413" cy="93" r="1.3" fill="white" opacity="0.37"/>
  <circle cx="227" cy="24" r="1.7" fill="white" opacity="0.51"/>
  <circle cx="159" cy="155" r="1.8" fill="white" opacity="0.35"/>
  <circle cx="481" cy="57" r="1.2" fill="white" opacity="0.62"/>
  <circle cx="315" cy="33" r="1.3" fill="white" opacity="0.41"/>
  <circle cx="211" cy="126" r="1.2" fill="white" opacity="0.69"/>
  <circle cx="97" cy="71" r="1.9" fill="white" opacity="0.67"/>
  <circle cx="303" cy="130" r="1.8" fill="white" opacity="0.63"/>
  <!-- Icon -->
  <text x="250" y="58" text-anchor="middle" font-size="48" fill="white" opacity="0.9">💎</text>
  <!-- Title -->
  <text x="250" y="105" text-anchor="middle" font-family="monospace" font-weight="bold" font-size="26" fill="#A855F7" filter="url(#textGlow)">SPARKLE MATCH</text>
  <!-- Subtitle -->
  <text x="250" y="130" text-anchor="middle" font-family="monospace" font-size="10" fill="white" opacity="0.4">YOUR WORLD ARCADE</text>
  <!-- Accent line -->
  <rect x="170" y="142" width="160" height="1.5" rx="1" fill="#A855F7" opacity="0.3"/>
</svg>