<svg xmlns="http://www.w3.org/2000/svg" viewBox="0 0 500 180" width="500" height="180">
  <defs>
    <linearGradient id="bg" x1="0" y1="0" x2="1" y2="1">
      <stop offset="0%" stop-color="rgb(6,39,18)"/>
      <stop offset="50%" stop-color="rgb(10,59,28)"/>
      <stop offset="100%" stop-color="rgb(4,23,11)"/>
    </linearGradient>
    <radialGradient id="glow" cx="50%" cy="50%" r="45%">
      <stop offset="0%" stop-color="#22C55E" stop-opacity="0.25"/>
      <stop offset="100%" stop-color="#22C55E" stop-opacity="0"/>
    </radialGradient>
    <filter id="textGlow">
      <feGaussianBlur stdDeviation="3" result="blur"/>
      <feMerge><feMergeNode in="blur"/><feMergeNode in="SourceGraphic"/></feMerge>
    </filter>
  </defs>
  <rect width="500" height="180" fill="url(#bg)"/>
  <rect width="500" height="180" fill="url(#glow)"/>
  <!-- Stars -->
  <circle cx="419" cy="70" r="0.8" fill="white" opacity="0.63"/>
  <circle cx="292" cy="156" r="1.7" fill="white" opacity="0.63"/>
  <circle cx="430" cy="155" r="0.9" fill="white" opacity="0.44"/>
  <circle cx="196" cy="110" r="0.8" fill="white" opacity="0.60"/>
  <circle cx="14" cy="145" r="1.2" fill="white" opacity="0.66"/>
  <circle cx="426" cy="73" r="1.7" fill="white" opacity="0.22"/>
  <circle cx="466" cy="97" r="0.7" fill="white" opacity="0.47"/>
  <circle cx="184" cy="76" r="0.6" fill="white" opacity="0.65"/>
  <circle cx="188" cy="15" r="1.7" fill="white" opacity="0.57"/>
  <circle cx="306" cy="37" r="0.5" fill="white" opacity="0.61"/>
  <circle cx="456" cy="152" r="0.9" fill="white" opacity="0.43"/>
  <circle cx="197" cy="131" r="1.0" fill="white" opacity="0.31"/>
  <circle cx="480" cy="94" r="1.4" fill="white" opacity="0.52"/>
  <circle cx="465" cy="81" r="1.2" fill="white" opacity="0.45"/>
  <circle cx="45" cy="32" r="1.3" fill="white" opacity="0.65"/>
  <circle cx="316" cy="108" r="1.9" fill="white" opacity="0.53"/>
  <circle cx="396" cy="105" r="1.5" fill="white" opacity="0.44"/>
  <circle cx="384" cy="30" r="1.9" fill="white" opacity="0.63"/>
  <circle cx="183" cy="54" r="1.5" fill="white" opacity="0.26"/>
  <circle cx="189" cy="107" r="1.0" fill="white" opacity="0.52"/>
  <circle cx="436" cy="90" r="1.2" fill="white" opacity="0.29"/>
  <circle cx="290" cy="133" r="0.8" fill="white" opacity="0.42"/>
  <circle cx="225" cy="137" r="1.8" fill="white" opacity="0.54"/>
  <circle cx="207" cy="65" r="1.4" fill="white" opacity="0.24"/>
  <circle cx="166" cy="104" r="1.8" fill="white" opacity="0.56"/>
  <!-- Icon -->
  <text x="250" y="58" text-anchor="middle" font-size="48" fill="white" opacity="0.9">🛡️</text>
  <!-- Title -->
  <text x="250" y="105" text-anchor="middle" font-family="monospace" font-weight="bold" font-size="26" fill="#22C55E" filter="url(#textGlow)">SPLIT DEFEND</text>
  <!-- Subtitle -->
  <text x="250" y="130" text-anchor="middle" font-family="monospace" font-size="10" fill="white" opacity="0.4">YOUR WORLD ARCADE</text>
  <!-- Accent line -->
  <rect x="170" y="142" width="160" height="1.5" rx="1" fill="#22C55E" opacity="0.3"/>
</svg>