<svg xmlns="http://www.w3.org/2000/svg" viewBox="0 0 500 180" width="500" height="180">
  <defs>
    <linearGradient id="bg" x1="0" y1="0" x2="1" y2="1">
      <stop offset="0%" stop-color="rgb(33,17,49)"/>
      <stop offset="50%" stop-color="rgb(50,25,74)"/>
      <stop offset="100%" stop-color="rgb(20,10,29)"/>
    </linearGradient>
    <radialGradient id="glow" cx="50%" cy="50%" r="45%">
      <stop offset="0%" stop-color="#A855F7" stop-opacity="0.25"/>
      <stop offset="100%" stop-color="#A855F7" stop-opacity="0"/>
    </radialGradient>
    <filter id="textGlow">
      <feGaussianBlur stdDeviation="3" result="blur"/>
      <feMerge><feMergeNode in="blur"/><feMergeNode in="SourceGraphic"/></feMerge>
    </filter>
  </defs>
  <rect width="500" height="180" fill="url(#bg)"/>
  <rect width="500" height="180" fill="url(#glow)"/>
  <!-- Stars -->
  <circle cx="468" cy="74" r="1.3" fill="white" opacity="0.35"/>
  <circle cx="264" cy="161" r="1.1" fill="white" opacity="0.66"/>
  <circle cx="20" cy="27" r="1.3" fill="white" opacity="0.46"/>
  <circle cx="477" cy="14" r="1.7" fill="white" opacity="0.22"/>
  <circle cx="124" cy="83" r="0.7" fill="white" opacity="0.21"/>
  <circle cx="459" cy="124" r="1.6" fill="white" opacity="0.27"/>
  <circle cx="480" cy="36" r="0.7" fill="white" opacity="0.25"/>
  <circle cx="483" cy="157" r="1.6" fill="white" opacity="0.36"/>
  <circle cx="239" cy="157" r="1.4" fill="white" opacity="0.57"/>
  <circle cx="208" cy="64" r="0.6" fill="white" opacity="0.39"/>
  <circle cx="351" cy="113" r="1.9" fill="white" opacity="0.31"/>
  <circle cx="80" cy="102" r="0.8" fill="white" opacity="0.41"/>
  <circle cx="397" cy="37" r="0.5" fill="white" opacity="0.29"/>
  <circle cx="328" cy="10" r="0.9" fill="white" opacity="0.47"/>
  <circle cx="416" cy="47" r="1.0" fill="white" opacity="0.36"/>
  <circle cx="352" cy="125" r="1.6" fill="white" opacity="0.49"/>
  <circle cx="144" cy="32" r="0.8" fill="white" opacity="0.38"/>
  <circle cx="46" cy="137" r="0.7" fill="white" opacity="0.66"/>
  <circle cx="262" cy="19" r="1.3" fill="white" opacity="0.57"/>
  <circle cx="314" cy="156" r="1.2" fill="white" opacity="0.54"/>
  <circle cx="59" cy="81" r="1.6" fill="white" opacity="0.55"/>
  <circle cx="331" cy="142" r="1.4" fill="white" opacity="0.34"/>
  <circle cx="98" cy="78" r="0.6" fill="white" opacity="0.28"/>
  <circle cx="103" cy="30" r="1.8" fill="white" opacity="0.50"/>
  <circle cx="137" cy="159" r="0.8" fill="white" opacity="0.42"/>
  <!-- Icon -->
  <text x="250" y="58" text-anchor="middle" font-size="48" fill="white" opacity="0.9">❌</text>
  <!-- Title -->
  <text x="250" y="105" text-anchor="middle" font-family="monospace" font-weight="bold" font-size="26" fill="#A855F7" filter="url(#textGlow)">TIC TAC TOE</text>
  <!-- Subtitle -->
  <text x="250" y="130" text-anchor="middle" font-family="monospace" font-size="10" fill="white" opacity="0.4">YOUR WORLD ARCADE</text>
  <!-- Accent line -->
  <rect x="170" y="142" width="160" height="1.5" rx="1" fill="#A855F7" opacity="0.3"/>
</svg>