<svg xmlns="http://www.w3.org/2000/svg" viewBox="0 0 500 180" width="500" height="180">
  <defs>
    <linearGradient id="bg" x1="0" y1="0" x2="1" y2="1">
      <stop offset="0%" stop-color="rgb(33,17,49)"/>
      <stop offset="50%" stop-color="rgb(50,25,74)"/>
      <stop offset="100%" stop-color="rgb(20,10,29)"/>
    </linearGradient>
    <radialGradient id="glow" cx="50%" cy="50%" r="45%">
      <stop offset="0%" stop-color="#A855F7" stop-opacity="0.25"/>
      <stop offset="100%" stop-color="#A855F7" stop-opacity="0"/>
    </radialGradient>
    <filter id="textGlow">
      <feGaussianBlur stdDeviation="3" result="blur"/>
      <feMerge><feMergeNode in="blur"/><feMergeNode in="SourceGraphic"/></feMerge>
    </filter>
  </defs>
  <rect width="500" height="180" fill="url(#bg)"/>
  <rect width="500" height="180" fill="url(#glow)"/>
  <!-- Stars -->
  <circle cx="23" cy="61" r="1.6" fill="white" opacity="0.51"/>
  <circle cx="434" cy="121" r="1.5" fill="white" opacity="0.31"/>
  <circle cx="142" cy="156" r="0.6" fill="white" opacity="0.27"/>
  <circle cx="211" cy="66" r="1.3" fill="white" opacity="0.30"/>
  <circle cx="460" cy="104" r="1.0" fill="white" opacity="0.34"/>
  <circle cx="328" cy="127" r="0.8" fill="white" opacity="0.30"/>
  <circle cx="220" cy="71" r="1.2" fill="white" opacity="0.30"/>
  <circle cx="77" cy="125" r="1.4" fill="white" opacity="0.48"/>
  <circle cx="453" cy="83" r="1.6" fill="white" opacity="0.57"/>
  <circle cx="198" cy="165" r="2.0" fill="white" opacity="0.26"/>
  <circle cx="246" cy="141" r="1.7" fill="white" opacity="0.69"/>
  <circle cx="168" cy="101" r="0.7" fill="white" opacity="0.23"/>
  <circle cx="82" cy="50" r="1.6" fill="white" opacity="0.27"/>
  <circle cx="23" cy="71" r="0.7" fill="white" opacity="0.26"/>
  <circle cx="422" cy="92" r="1.4" fill="white" opacity="0.55"/>
  <circle cx="175" cy="135" r="1.0" fill="white" opacity="0.47"/>
  <circle cx="109" cy="103" r="1.0" fill="white" opacity="0.54"/>
  <circle cx="266" cy="67" r="1.3" fill="white" opacity="0.39"/>
  <circle cx="250" cy="108" r="1.1" fill="white" opacity="0.47"/>
  <circle cx="29" cy="65" r="1.7" fill="white" opacity="0.21"/>
  <circle cx="203" cy="49" r="0.9" fill="white" opacity="0.34"/>
  <circle cx="451" cy="21" r="0.6" fill="white" opacity="0.41"/>
  <circle cx="361" cy="77" r="0.8" fill="white" opacity="0.21"/>
  <circle cx="226" cy="157" r="1.0" fill="white" opacity="0.22"/>
  <circle cx="359" cy="153" r="1.7" fill="white" opacity="0.54"/>
  <!-- Icon -->
  <text x="250" y="58" text-anchor="middle" font-size="48" fill="white" opacity="0.9">🏰</text>
  <!-- Title -->
  <text x="250" y="105" text-anchor="middle" font-family="monospace" font-weight="bold" font-size="26" fill="#A855F7" filter="url(#textGlow)">TOWER DEFENSE</text>
  <!-- Subtitle -->
  <text x="250" y="130" text-anchor="middle" font-family="monospace" font-size="10" fill="white" opacity="0.4">YOUR WORLD ARCADE</text>
  <!-- Accent line -->
  <rect x="170" y="142" width="160" height="1.5" rx="1" fill="#A855F7" opacity="0.3"/>
</svg>