<svg xmlns="http://www.w3.org/2000/svg" viewBox="0 0 500 180" width="500" height="180">
  <defs>
    <linearGradient id="bg" x1="0" y1="0" x2="1" y2="1">
      <stop offset="0%" stop-color="rgb(47,14,30)"/>
      <stop offset="50%" stop-color="rgb(70,21,45)"/>
      <stop offset="100%" stop-color="rgb(28,8,18)"/>
    </linearGradient>
    <radialGradient id="glow" cx="50%" cy="50%" r="45%">
      <stop offset="0%" stop-color="#EC4899" stop-opacity="0.25"/>
      <stop offset="100%" stop-color="#EC4899" stop-opacity="0"/>
    </radialGradient>
    <filter id="textGlow">
      <feGaussianBlur stdDeviation="3" result="blur"/>
      <feMerge><feMergeNode in="blur"/><feMergeNode in="SourceGraphic"/></feMerge>
    </filter>
  </defs>
  <rect width="500" height="180" fill="url(#bg)"/>
  <rect width="500" height="180" fill="url(#glow)"/>
  <!-- Stars -->
  <circle cx="360" cy="129" r="1.9" fill="white" opacity="0.47"/>
  <circle cx="326" cy="11" r="1.4" fill="white" opacity="0.55"/>
  <circle cx="422" cy="56" r="0.7" fill="white" opacity="0.61"/>
  <circle cx="251" cy="22" r="0.5" fill="white" opacity="0.68"/>
  <circle cx="242" cy="144" r="1.6" fill="white" opacity="0.38"/>
  <circle cx="44" cy="133" r="1.1" fill="white" opacity="0.45"/>
  <circle cx="479" cy="20" r="1.5" fill="white" opacity="0.59"/>
  <circle cx="261" cy="127" r="0.6" fill="white" opacity="0.52"/>
  <circle cx="203" cy="62" r="2.0" fill="white" opacity="0.23"/>
  <circle cx="233" cy="35" r="1.6" fill="white" opacity="0.40"/>
  <circle cx="178" cy="57" r="0.6" fill="white" opacity="0.48"/>
  <circle cx="267" cy="125" r="1.1" fill="white" opacity="0.25"/>
  <circle cx="191" cy="50" r="1.1" fill="white" opacity="0.51"/>
  <circle cx="71" cy="90" r="1.4" fill="white" opacity="0.67"/>
  <circle cx="312" cy="74" r="0.9" fill="white" opacity="0.69"/>
  <circle cx="55" cy="48" r="0.6" fill="white" opacity="0.59"/>
  <circle cx="482" cy="27" r="0.6" fill="white" opacity="0.70"/>
  <circle cx="127" cy="87" r="1.4" fill="white" opacity="0.26"/>
  <circle cx="13" cy="153" r="2.0" fill="white" opacity="0.37"/>
  <circle cx="23" cy="22" r="1.2" fill="white" opacity="0.65"/>
  <circle cx="215" cy="109" r="0.9" fill="white" opacity="0.33"/>
  <circle cx="327" cy="22" r="1.2" fill="white" opacity="0.43"/>
  <circle cx="320" cy="19" r="1.2" fill="white" opacity="0.39"/>
  <circle cx="31" cy="147" r="1.1" fill="white" opacity="0.31"/>
  <circle cx="273" cy="63" r="1.3" fill="white" opacity="0.67"/>
  <!-- Icon -->
  <text x="250" y="58" text-anchor="middle" font-size="48" fill="white" opacity="0.9">🧸</text>
  <!-- Title -->
  <text x="250" y="105" text-anchor="middle" font-family="monospace" font-weight="bold" font-size="26" fill="#EC4899" filter="url(#textGlow)">TOY CRUSH</text>
  <!-- Subtitle -->
  <text x="250" y="130" text-anchor="middle" font-family="monospace" font-size="10" fill="white" opacity="0.4">YOUR WORLD ARCADE</text>
  <!-- Accent line -->
  <rect x="170" y="142" width="160" height="1.5" rx="1" fill="#EC4899" opacity="0.3"/>
</svg>