<svg xmlns="http://www.w3.org/2000/svg" viewBox="0 0 500 180" width="500" height="180">
  <defs>
    <linearGradient id="bg" x1="0" y1="0" x2="1" y2="1">
      <stop offset="0%" stop-color="rgb(33,17,49)"/>
      <stop offset="50%" stop-color="rgb(50,25,74)"/>
      <stop offset="100%" stop-color="rgb(20,10,29)"/>
    </linearGradient>
    <radialGradient id="glow" cx="50%" cy="50%" r="45%">
      <stop offset="0%" stop-color="#A855F7" stop-opacity="0.25"/>
      <stop offset="100%" stop-color="#A855F7" stop-opacity="0"/>
    </radialGradient>
    <filter id="textGlow">
      <feGaussianBlur stdDeviation="3" result="blur"/>
      <feMerge><feMergeNode in="blur"/><feMergeNode in="SourceGraphic"/></feMerge>
    </filter>
  </defs>
  <rect width="500" height="180" fill="url(#bg)"/>
  <rect width="500" height="180" fill="url(#glow)"/>
  <!-- Stars -->
  <circle cx="371" cy="53" r="1.7" fill="white" opacity="0.58"/>
  <circle cx="219" cy="100" r="1.0" fill="white" opacity="0.32"/>
  <circle cx="299" cy="35" r="1.8" fill="white" opacity="0.53"/>
  <circle cx="362" cy="52" r="1.3" fill="white" opacity="0.30"/>
  <circle cx="407" cy="30" r="1.8" fill="white" opacity="0.57"/>
  <circle cx="39" cy="81" r="1.0" fill="white" opacity="0.61"/>
  <circle cx="440" cy="87" r="0.8" fill="white" opacity="0.26"/>
  <circle cx="193" cy="135" r="1.2" fill="white" opacity="0.52"/>
  <circle cx="32" cy="33" r="2.0" fill="white" opacity="0.61"/>
  <circle cx="291" cy="19" r="0.7" fill="white" opacity="0.28"/>
  <circle cx="11" cy="118" r="1.9" fill="white" opacity="0.53"/>
  <circle cx="107" cy="78" r="0.8" fill="white" opacity="0.23"/>
  <circle cx="345" cy="27" r="1.0" fill="white" opacity="0.64"/>
  <circle cx="385" cy="88" r="1.7" fill="white" opacity="0.48"/>
  <circle cx="32" cy="110" r="1.2" fill="white" opacity="0.21"/>
  <circle cx="186" cy="93" r="0.8" fill="white" opacity="0.50"/>
  <circle cx="291" cy="17" r="0.8" fill="white" opacity="0.37"/>
  <circle cx="253" cy="110" r="0.9" fill="white" opacity="0.56"/>
  <circle cx="475" cy="33" r="1.4" fill="white" opacity="0.30"/>
  <circle cx="274" cy="81" r="1.9" fill="white" opacity="0.45"/>
  <circle cx="117" cy="27" r="1.2" fill="white" opacity="0.55"/>
  <circle cx="470" cy="112" r="1.2" fill="white" opacity="0.65"/>
  <circle cx="462" cy="126" r="1.0" fill="white" opacity="0.32"/>
  <circle cx="219" cy="97" r="1.6" fill="white" opacity="0.55"/>
  <circle cx="396" cy="121" r="1.5" fill="white" opacity="0.21"/>
  <!-- Icon -->
  <text x="250" y="58" text-anchor="middle" font-size="48" fill="white" opacity="0.9">🧠</text>
  <!-- Title -->
  <text x="250" y="105" text-anchor="middle" font-family="monospace" font-weight="bold" font-size="26" fill="#A855F7" filter="url(#textGlow)">TRIVIA TAC</text>
  <!-- Subtitle -->
  <text x="250" y="130" text-anchor="middle" font-family="monospace" font-size="10" fill="white" opacity="0.4">YOUR WORLD ARCADE</text>
  <!-- Accent line -->
  <rect x="170" y="142" width="160" height="1.5" rx="1" fill="#A855F7" opacity="0.3"/>
</svg>