<svg xmlns="http://www.w3.org/2000/svg" viewBox="0 0 500 180" width="500" height="180">
  <defs>
    <linearGradient id="bg" x1="0" y1="0" x2="1" y2="1">
      <stop offset="0%" stop-color="rgb(49,31,2)"/>
      <stop offset="50%" stop-color="rgb(73,47,3)"/>
      <stop offset="100%" stop-color="rgb(29,18,1)"/>
    </linearGradient>
    <radialGradient id="glow" cx="50%" cy="50%" r="45%">
      <stop offset="0%" stop-color="#F59E0B" stop-opacity="0.25"/>
      <stop offset="100%" stop-color="#F59E0B" stop-opacity="0"/>
    </radialGradient>
    <filter id="textGlow">
      <feGaussianBlur stdDeviation="3" result="blur"/>
      <feMerge><feMergeNode in="blur"/><feMergeNode in="SourceGraphic"/></feMerge>
    </filter>
  </defs>
  <rect width="500" height="180" fill="url(#bg)"/>
  <rect width="500" height="180" fill="url(#glow)"/>
  <!-- Stars -->
  <circle cx="169" cy="133" r="0.9" fill="white" opacity="0.61"/>
  <circle cx="423" cy="105" r="1.4" fill="white" opacity="0.55"/>
  <circle cx="289" cy="148" r="1.5" fill="white" opacity="0.31"/>
  <circle cx="455" cy="69" r="1.7" fill="white" opacity="0.59"/>
  <circle cx="452" cy="24" r="1.0" fill="white" opacity="0.54"/>
  <circle cx="343" cy="135" r="1.1" fill="white" opacity="0.48"/>
  <circle cx="289" cy="40" r="1.5" fill="white" opacity="0.67"/>
  <circle cx="236" cy="99" r="1.6" fill="white" opacity="0.28"/>
  <circle cx="282" cy="119" r="1.6" fill="white" opacity="0.27"/>
  <circle cx="182" cy="45" r="1.0" fill="white" opacity="0.32"/>
  <circle cx="127" cy="103" r="0.8" fill="white" opacity="0.43"/>
  <circle cx="39" cy="49" r="1.3" fill="white" opacity="0.29"/>
  <circle cx="481" cy="53" r="2.0" fill="white" opacity="0.30"/>
  <circle cx="312" cy="87" r="0.6" fill="white" opacity="0.65"/>
  <circle cx="155" cy="40" r="1.0" fill="white" opacity="0.25"/>
  <circle cx="243" cy="117" r="1.8" fill="white" opacity="0.32"/>
  <circle cx="263" cy="102" r="0.8" fill="white" opacity="0.39"/>
  <circle cx="40" cy="131" r="1.6" fill="white" opacity="0.21"/>
  <circle cx="383" cy="145" r="0.9" fill="white" opacity="0.50"/>
  <circle cx="373" cy="160" r="1.3" fill="white" opacity="0.28"/>
  <circle cx="341" cy="50" r="0.8" fill="white" opacity="0.26"/>
  <circle cx="363" cy="71" r="1.4" fill="white" opacity="0.61"/>
  <circle cx="49" cy="154" r="0.8" fill="white" opacity="0.38"/>
  <circle cx="24" cy="80" r="1.7" fill="white" opacity="0.23"/>
  <circle cx="211" cy="152" r="1.6" fill="white" opacity="0.31"/>
  <!-- Icon -->
  <text x="250" y="58" text-anchor="middle" font-size="48" fill="white" opacity="0.9">🔨</text>
  <!-- Title -->
  <text x="250" y="105" text-anchor="middle" font-family="monospace" font-weight="bold" font-size="26" fill="#F59E0B" filter="url(#textGlow)">WHAC-A-MOLE</text>
  <!-- Subtitle -->
  <text x="250" y="130" text-anchor="middle" font-family="monospace" font-size="10" fill="white" opacity="0.4">YOUR WORLD ARCADE</text>
  <!-- Accent line -->
  <rect x="170" y="142" width="160" height="1.5" rx="1" fill="#F59E0B" opacity="0.3"/>
</svg>