<svg xmlns="http://www.w3.org/2000/svg" viewBox="0 0 500 180" width="500" height="180">
  <defs>
    <linearGradient id="bg" x1="0" y1="0" x2="1" y2="1">
      <stop offset="0%" stop-color="rgb(6,39,18)"/>
      <stop offset="50%" stop-color="rgb(10,59,28)"/>
      <stop offset="100%" stop-color="rgb(4,23,11)"/>
    </linearGradient>
    <radialGradient id="glow" cx="50%" cy="50%" r="45%">
      <stop offset="0%" stop-color="#22C55E" stop-opacity="0.25"/>
      <stop offset="100%" stop-color="#22C55E" stop-opacity="0"/>
    </radialGradient>
    <filter id="textGlow">
      <feGaussianBlur stdDeviation="3" result="blur"/>
      <feMerge><feMergeNode in="blur"/><feMergeNode in="SourceGraphic"/></feMerge>
    </filter>
  </defs>
  <rect width="500" height="180" fill="url(#bg)"/>
  <rect width="500" height="180" fill="url(#glow)"/>
  <!-- Stars -->
  <circle cx="489" cy="91" r="1.3" fill="white" opacity="0.37"/>
  <circle cx="196" cy="81" r="1.7" fill="white" opacity="0.30"/>
  <circle cx="157" cy="13" r="1.3" fill="white" opacity="0.57"/>
  <circle cx="265" cy="114" r="0.5" fill="white" opacity="0.52"/>
  <circle cx="317" cy="76" r="1.3" fill="white" opacity="0.67"/>
  <circle cx="362" cy="118" r="0.9" fill="white" opacity="0.66"/>
  <circle cx="277" cy="164" r="1.0" fill="white" opacity="0.60"/>
  <circle cx="19" cy="86" r="0.7" fill="white" opacity="0.33"/>
  <circle cx="120" cy="95" r="1.1" fill="white" opacity="0.60"/>
  <circle cx="24" cy="142" r="0.8" fill="white" opacity="0.33"/>
  <circle cx="406" cy="169" r="0.9" fill="white" opacity="0.60"/>
  <circle cx="314" cy="49" r="1.2" fill="white" opacity="0.28"/>
  <circle cx="233" cy="16" r="1.3" fill="white" opacity="0.39"/>
  <circle cx="222" cy="160" r="2.0" fill="white" opacity="0.50"/>
  <circle cx="402" cy="165" r="1.2" fill="white" opacity="0.67"/>
  <circle cx="36" cy="152" r="0.7" fill="white" opacity="0.20"/>
  <circle cx="412" cy="120" r="1.2" fill="white" opacity="0.37"/>
  <circle cx="24" cy="125" r="1.6" fill="white" opacity="0.34"/>
  <circle cx="435" cy="27" r="0.8" fill="white" opacity="0.52"/>
  <circle cx="181" cy="116" r="1.0" fill="white" opacity="0.60"/>
  <circle cx="65" cy="23" r="1.5" fill="white" opacity="0.61"/>
  <circle cx="315" cy="45" r="0.5" fill="white" opacity="0.28"/>
  <circle cx="489" cy="72" r="1.1" fill="white" opacity="0.62"/>
  <circle cx="446" cy="164" r="1.5" fill="white" opacity="0.36"/>
  <circle cx="488" cy="158" r="1.7" fill="white" opacity="0.34"/>
  <!-- Icon -->
  <text x="250" y="58" text-anchor="middle" font-size="48" fill="white" opacity="0.9">📝</text>
  <!-- Title -->
  <text x="250" y="105" text-anchor="middle" font-family="monospace" font-weight="bold" font-size="26" fill="#22C55E" filter="url(#textGlow)">WORDLE</text>
  <!-- Subtitle -->
  <text x="250" y="130" text-anchor="middle" font-family="monospace" font-size="10" fill="white" opacity="0.4">YOUR WORLD ARCADE</text>
  <!-- Accent line -->
  <rect x="170" y="142" width="160" height="1.5" rx="1" fill="#22C55E" opacity="0.3"/>
</svg>